<?xml version="1.0" encoding="utf-8"?>
<!-- Generator: Adobe Illustrator 21.1.0, SVG Export Plug-In . SVG Version: 6.00 Build 0)  -->
<svg version="1.1" id="Layer_1" xmlns="http://www.w3.org/2000/svg" xmlns:xlink="http://www.w3.org/1999/xlink" x="0px" y="0px"
	 viewBox="0 0 1170 441" style="enable-background:new 0 0 1170 441;" xml:space="preserve">
<style type="text/css">
	.st0{fill:#D6CDBC;}
	.st1{fill:#C49A6C;}
	.st2{fill:#F9F7DD;}
	.st3{fill:#5B5A5D;}
</style>
<g>
	<path class="st0" d="M194.4,94.2c-2.8,1.6-4.8,3.5-6.1,5.7c-1.3,2.2-1.9,4.4-1.9,6.6c0,2.6,0.8,4.9,2.3,6.8
		c1.5,1.9,3.6,2.9,6.1,2.9c2.5,0,5.2-1.1,8.2-3.2c6.7-4.7,11.6-9.7,14.9-15c3.3-5.4,4.9-11,4.9-16.9c0-4.1-0.7-7.6-2-10.5
		c-1.3-2.9-3.2-5.3-5.5-7.2c-2.4-1.9-5.1-3.2-8.2-4.1c-3.1-0.9-6.6-1.3-10.3-1.3c-4.9,0-10.1,0.7-15.6,2.1c-5.5,1.4-11,3.3-16.4,5.7
		c-5.4,2.4-10.6,5.4-15.6,8.8c-5,3.4-9.3,7.2-13.1,11.2c-3.8,4-6.8,8.3-9,12.9c-2.2,4.6-3.4,9.3-3.4,14.1c0,5.2,1.4,10.2,4.2,15
		c2.8,4.8,7.1,9.8,12.7,15c1.1,0.9,3.8,3.2,8.4,6.9c4.5,3.6,11.1,8.4,19.8,14.3c4.9,3.3,8.5,6.5,10.8,9.6s3.4,6,3.4,8.9
		c0,3.8-1,7.3-3.1,10.5c-2.1,3.2-4.9,6-8.4,8.4c-3.5,2.4-7.6,4.2-12.3,5.5c-4.7,1.3-9.7,2-14.9,2c-5.1,0-9.4-0.3-13-1
		c-3.6-0.7-6.5-1.6-8.8-2.7c-2.3-1.1-3.9-2.5-5-4c-1.1-1.5-1.6-3.1-1.6-4.7c0-2.6,1.2-5.2,3.6-7.9c2.4-2.6,5.8-4.9,10-6.8
		c1.8-0.8,3.3-1.5,4.4-2.2c1.1-0.7,2-1.4,2.7-2.1c0.7-0.7,1.1-1.6,1.4-2.4c0.2-0.9,0.3-1.9,0.3-3.1c0-2.4-0.5-4.5-1.5-6.3
		c-1-1.9-2.6-2.8-4.8-2.8c-5.9,1.5-11.3,3.7-16.3,6.5c-4.9,2.8-9.2,6.1-12.7,9.7c-3.5,3.6-6.3,7.5-8.2,11.5c-1.9,4.1-2.9,8.1-2.9,12
		c0,3.8,0.9,7.4,2.8,10.8c1.9,3.4,4.9,6.5,9.1,9.1c4.2,2.6,9.5,4.7,16,6.3c6.5,1.5,14.3,2.3,23.6,2.3c9.9,0,19-1.5,27.1-4.4
		c8.2-2.9,15.1-6.7,20.9-11.5c5.8-4.7,10.3-10.1,13.4-16.2c3.1-6,4.7-12.2,4.7-18.5c0-2.8-0.5-5.5-1.5-8c-1-2.5-2.4-5-4.2-7.5
		s-4.1-5-6.8-7.5c-2.7-2.5-5.7-5-9.2-7.6l-26.6-20.5c-2.5-1.9-4.7-3.6-6.6-5.3c-1.9-1.6-3.5-3.2-4.8-4.7c-1.3-1.5-2.3-3-3-4.5
		c-0.7-1.5-1-3.1-1-4.9c0-2.5,0.8-5.1,2.4-7.6c1.6-2.6,3.8-5,6.5-7.3c2.7-2.3,5.8-4.4,9.3-6.4c3.5-2,7.2-3.7,10.9-5.1
		c3.8-1.4,7.5-2.5,11.3-3.4c3.8-0.8,7.2-1.2,10.4-1.2c1.7,0,3.1,0.3,4.3,0.8c1.2,0.6,1.8,1.7,1.8,3.6c0,1.9-0.9,3.8-2.6,5.9
		C198.6,91.4,196.6,93,194.4,94.2z"/>
	<path class="st0" d="M488.9,182.9c-0.6,0-1.2,0.1-1.8,0.4c-0.6,0.2-1.1,0.6-1.6,1.2c-1.8,2.1-4.3,4.6-7.3,7.6c-3.1,3-6.4,6-9.9,8.8
		c-3.5,2.8-7.1,5.2-10.9,7.2c-3.7,2-7.2,3-10.4,3c-1.7,0-3-0.2-4-0.7c-1-0.5-1.5-1.6-1.5-3.3c0-1.9,0.5-3.9,1.6-6.1
		c1.1-2.2,2.3-4.3,3.8-6.3c1.4-2.1,2.9-4,4.4-5.8c1.5-1.8,2.7-3.3,3.6-4.5c2.8-3.6,5.2-7.5,7.3-11.7c2.1-4.3,3.1-8.8,3.1-13.5
		c0-3-0.5-5.5-1.5-7.6c-1-2.1-2.4-3.7-4.2-5c-1.8-1.3-3.8-2.2-6.1-2.8c-2.3-0.6-4.7-0.8-7.2-0.8c-3.4,0-6.5,0.4-9.3,1.3
		c-2.8,0.9-5.4,2-7.8,3.4c-2.4,1.4-4.6,3-6.7,4.8c-2,1.8-3.9,3.6-5.7,5.4c-0.2-2.7-0.7-5-1.6-6.9c-0.9-1.9-2.2-3.4-3.6-4.6
		c-1.5-1.2-3.2-2.1-5.1-2.6c-1.9-0.6-3.9-0.8-6-0.8c-4.2,0-8.1,0.6-11.5,1.9c-3.4,1.3-6.5,2.9-9.3,4.8c-2.8,1.9-5.3,4-7.7,6.3
		c-2.4,2.3-4.5,4.4-6.6,6.4c0.9-2.4,1.4-4.7,1.4-6.7c0-2.8-0.7-4.9-2.2-6.3c-1.5-1.5-3.2-2.2-5.1-2.2c-2.2,0-4.4,0.8-6.7,2.5
		c-2.2,1.7-4,4.2-5.4,7.6c-1.1,2.8-2.6,6.1-4.3,10c-1.7,3.9-3.5,8.1-5.5,12.5c-0.6,1.3-1.1,2.5-1.7,3.8c-4.8,5-9.3,9.5-13.5,13.5
		c-1.8,1.7-3.7,3.3-5.6,4.9c-1.9,1.6-3.8,3.1-5.6,4.3c-1.8,1.3-3.5,2.3-5.1,3c-1.6,0.8-2.9,1.1-4,1.1c-1.8,0-3.1-0.8-3.9-2.3
		c-0.8-1.5-1.1-3.5-1.1-5.9c0-1.8,0.3-4,0.8-6.6c0.5-2.6,1.2-5.3,2-8.2c0.8-2.9,1.8-5.9,2.8-8.9c1-3,2-6,3-8.8
		c1-2.8,1.9-5.3,2.7-7.6c0.8-2.3,1.4-4.2,1.8-5.7c0.1-0.3,0.1-0.7,0.1-1.3c0-2-0.9-3.8-2.7-5.4c-1.8-1.7-4.2-2.5-7.1-2.5
		c-0.9,0-2,0.2-3.2,0.7c-1.3,0.4-2.4,0.9-3.6,1.5c-1.4,0.6-2.7,1.3-4,2c-1.5-1.5-3.3-2.9-5.2-4.1c-1.7-1-3.9-2-6.4-2.8
		c-2.5-0.9-5.4-1.3-8.8-1.3c-6.4,0-12.3,1.2-17.5,3.5c-5.2,2.3-9.9,5.4-14,9.1c-4.1,3.7-7.6,8-10.6,12.7c-3,4.7-5.5,9.5-7.4,14.4
		s-3.4,9.5-4.3,14c-0.9,4.5-1.4,8.4-1.4,11.6c0,4.3,0.8,8,2.4,11c1.6,3,3.6,5.4,5.9,7.3c2.3,1.9,4.8,3.3,7.5,4.1
		c2.6,0.8,4.9,1.2,6.9,1.2c3.9,0,7.7-0.9,11.4-2.8c3.8-1.9,7.4-4.2,10.8-7.1c3.4-2.9,6.7-6.1,9.7-9.6c3-3.5,5.7-6.9,8-10.2
		c-0.5,1.4-0.9,2.9-1.1,4.6c-0.2,1.6-0.3,3.3-0.3,4.9c0,2.5,0.3,5,0.9,7.4c0.6,2.4,1.5,4.6,2.8,6.5c1.3,1.9,2.8,3.4,4.7,4.6
		c1.9,1.2,4.2,1.8,6.8,1.8c3,0,6.1-0.7,9.4-2.2c3.3-1.5,6.7-3.3,10.2-5.6c3.4-2.3,6.8-4.8,10.1-7.6c1.2-1,2.3-2,3.5-3
		c-0.3,0.9-0.6,1.9-0.9,2.7c-1,3-1.5,5.2-1.5,6.6c0,2.5,0.8,4.7,2.4,6.5c1.6,1.8,3.8,2.7,6.5,2.7c2.5,0,4.6-0.9,6.3-2.7
		c1.7-1.8,3.2-4,4.5-6.6c1.3-2.6,2.6-5.4,3.7-8.5c1.1-3.1,2.4-5.9,3.8-8.5c1.5-2.5,3.2-5.3,5-8.4s3.8-6.2,5.9-9.3
		c2.1-3.1,4.3-6.1,6.7-9.1c2.4-2.9,4.9-5.5,7.6-7.8c2.7-2.2,5.4-4.1,8.3-5.4c2.9-1.4,5.9-2.1,9-2.1c1.3,0,2.3,0.4,3,1.2
		c0.7,0.8,1,1.9,1,3.1c0,1.2-0.2,2.3-0.7,3.5c-0.5,1.1-1.1,2.3-1.8,3.6c-2.7,4.5-5.5,8.9-8.4,13.2c-3,4.3-5.7,8.5-8.2,12.7
		c-2.5,4.2-4.6,8.2-6.2,12.2c-1.6,3.9-2.4,7.8-2.4,11.6c0.1,1,0.4,2,1,2.8c0.6,0.9,1.3,1.6,2.2,2.2c0.9,0.6,1.8,1.1,2.9,1.5
		c1.1,0.4,2,0.5,3,0.5c2.5,0,4.6-0.9,6.3-2.7c1.7-1.8,3.2-4,4.5-6.6c1.3-2.6,2.6-5.4,3.7-8.5c1.1-3.1,2.4-5.9,3.8-8.5
		c1.5-2.5,3.2-5.3,5-8.4c1.8-3.1,3.8-6.2,5.9-9.3c2.1-3.1,4.3-6.1,6.7-9.1c2.4-2.9,4.9-5.5,7.6-7.8c2.7-2.2,5.4-4.1,8.3-5.4
		c2.9-1.4,5.9-2.1,9-2.1c1.3,0,2.3,0.4,3,1.2c0.7,0.8,1,1.9,1,3.1c0,1.2-0.2,2.3-0.7,3.5c-0.5,1.1-1.1,2.3-1.8,3.6
		c-1.7,3-3.8,6-6.1,9c-2.4,3-4.6,6.1-6.7,9.3c-2.1,3.2-3.9,6.5-5.3,10c-1.4,3.5-2.2,7.2-2.2,11.1c0,6,1.7,10.4,5.2,13.1
		c3.4,2.8,8,4.1,13.6,4.1c4.3,0,8.7-0.9,13-2.6c4.4-1.7,8.7-4,13.1-6.9c4.4-2.9,8.7-6.2,13-9.9c4.3-3.7,8.5-7.7,12.6-11.8
		c2.2-1.8,3.8-3.7,4.7-5.6c0.9-1.9,1.4-3.6,1.4-5.2c0-2.1-0.6-3.7-1.6-5C491.5,183.5,490.3,182.9,488.9,182.9z M276.3,178.8
		c-1.1,2.2-2.6,4.7-4.4,7.5c-1.8,2.8-3.9,5.6-6.1,8.5c-2.3,2.9-4.6,5.5-7,7.9c-2.4,2.4-4.7,4.4-6.9,5.9c-2.2,1.5-4.2,2.3-5.9,2.3
		c-2.1,0-3.8-0.5-5.1-1.4c-1.3-0.9-2.2-2.1-2.9-3.6c-0.7-1.4-1.1-3-1.3-4.7c-0.2-1.7-0.3-3.3-0.3-4.9c0-3.9,0.8-7.7,2.3-11.5
		c1.5-3.8,3.6-7.3,6.1-10.4c2.6-3.1,5.5-5.6,8.9-7.5c3.3-1.9,6.8-2.8,10.4-2.8c1.2,0,2.6,0.2,4.3,0.7c1.6,0.4,3.2,1.1,4.6,2
		c1.4,0.9,2.7,1.9,3.6,3.1c1,1.2,1.5,2.6,1.5,4.1C278.1,175,277.5,176.6,276.3,178.8z"/>
	<path class="st0" d="M995.7,192c-1.3-3.7-3.3-7.4-5.8-10.9c-2.5-3.6-5.6-7-9.3-10.2c-3.6-3.2-7.8-6.1-12.4-8.6
		c1.1-0.9,2.1-1.8,3.2-2.7c1.1-0.9,2.1-1.9,3-2.8c0.9-0.9,1.6-1.9,2.1-3c0.5-1,0.8-2.1,0.8-3.2c0-0.8-0.3-1.6-0.9-2.5
		c-0.6-0.9-1.3-1.7-2.3-2.5c-1-0.7-2.2-1.4-3.6-1.8c-1.4-0.5-3-0.7-4.7-0.7c-2.3,0-4.5,0.5-6.6,1.4c-2.1,0.9-4.1,2.1-5.9,3.6
		c-1.8,1.5-3.5,3.1-5.1,4.8c-1.6,1.7-3,3.4-4.2,5.1c-0.5,0.6-0.7,1.3-0.7,2.2c0,1.2,0.4,2.3,1.1,3.5c0.8,1.1,1.3,1.8,1.7,2.1
		c3.5,2.3,7,4.7,10.5,7.2c3.5,2.5,6.7,5.2,9.4,8c2.8,2.9,5,6,6.8,9.4c1.7,3.4,2.6,7.1,2.6,11.1c0,2.3-0.5,4.2-1.5,5.8
		c-1,1.6-2.3,2.9-4,3.9c-1.7,1-3.7,1.8-5.9,2.2c-2.2,0.5-4.6,0.7-7,0.7c-2.4,0-4.8-0.3-7.2-0.9c-2.5-0.6-4.8-1.4-7-2.5
		c-2.1-1-4-2.3-5.8-3.7c1.9-1.4,3.5-2.6,4.9-3.7c2.2-1.7,3.4-2.8,3.8-3.2c1-1.3,1.6-2.4,1.7-3.4c0.2-1,0.2-1.8,0.2-2.5
		c0-0.5-0.1-1-0.2-1.7c-0.2-0.7-0.4-1.3-0.9-1.9c-0.4-0.6-0.9-1.1-1.5-1.5c-0.6-0.4-1.4-0.7-2.3-0.7c-0.5,0-1,0-1.5,0.1
		c-0.6,0.1-1.2,0.4-1.9,0.8c-0.7,0.3-2,1.1-4,2.4c-2,1.3-4.5,2.8-7.5,4.5c-3,1.7-6.4,3.6-10.1,5.5c-3.7,1.9-7.5,3.7-11.4,5.4
		c-3.9,1.7-7.8,3-11.8,4.1c-4,1.1-7.7,1.6-11.2,1.6c-3.3,0-5.9-0.7-7.8-2c-2-1.3-3.1-3.1-3.5-5.4c10.3-3.9,18.9-7.9,25.8-11.8
		c6.9-3.9,12.3-7.7,16.4-11.5c4.1-3.7,7-7.4,8.6-11.1c1.7-3.6,2.5-7.1,2.5-10.4c0-5.6-1.6-10-4.7-13.1c-3.1-3.2-7.8-4.7-14.1-4.7
		c-6,0-11.6,0.9-16.9,2.7c-5.3,1.8-10.1,4.2-14.5,7.2c-4.4,3-8.4,6.5-11.9,10.4c-3.5,3.9-6.5,7.9-8.9,12c-2.4,4.1-4.3,8.2-5.6,12.2
		c-0.6,1.8-1,3.6-1.3,5.3c-1.8,0.8-3.7,1.8-5.8,2.8c-4.4,2.2-8.9,4.6-13.6,7.3c-4.7,2.7-8.9,5.5-12.6,8.3l25.5-55.3
		c0.4-0.9,0.6-2,0.6-3.1c0-1.3-0.3-2.6-1-3.8c-0.7-1.2-1.8-1.8-3.4-1.8c-0.9,0-1.8,0-2.7,0.1c-0.9,0.1-1.8,0.3-2.9,0.8
		c-1.1,0.4-2.3,1.1-3.8,2c-1.5,0.9-3.3,2.2-5.4,4l-47,48.1c-1.1,1.1-2.4,2.1-3.6,3c-1.3,0.9-2.4,1.3-3.2,1.3c-0.9,0-1.4-0.6-1.4-1.8
		c0-1.3,0.5-3.2,1.6-5.4l20.8-45.1c0.3-0.7,0.5-1.5,0.5-2.5c0-1.9-0.8-3.4-2.4-4.6c-1.6-1.1-3.6-1.7-6-1.7c-2.3,0-4.6,0.7-7.1,2.1
		c-2.4,1.4-4.4,3.6-5.9,6.7c-2.2,5.8-4.2,10.8-6,15.1c-1.8,4.3-3.4,8.1-4.9,11.4c-1.5,3.3-2.8,6.2-4.1,8.8c-0.6,1.2-1.1,2.3-1.6,3.4
		c-1.7,1.1-3.8,2.3-6.1,3.6c-3,1.7-6.4,3.6-10.1,5.5c-3.7,1.9-7.5,3.7-11.4,5.4c-3.9,1.7-7.8,3-11.8,4.1c-4,1.1-7.7,1.6-11.2,1.6
		c-3.3,0-5.9-0.7-7.8-2c-2-1.3-3.1-3.1-3.5-5.4c10.3-3.9,18.9-7.9,25.8-11.8c6.9-3.9,12.3-7.7,16.4-11.5c4.1-3.7,7-7.4,8.6-11.1
		c1.7-3.6,2.5-7.1,2.5-10.4c0-5.6-1.6-10-4.7-13.1c-3.1-3.2-7.8-4.7-14.1-4.7c-6,0-11.6,0.9-16.9,2.7c-5.3,1.8-10.1,4.2-14.5,7.2
		c-4.4,3-8.4,6.5-11.9,10.4c-3.5,3.9-6.5,7.9-8.9,12c-2.4,4.1-4.3,8.2-5.6,12.2c-1.3,4.1-1.9,7.8-1.9,11.2c0,1.9,0.1,3.8,0.4,5.6
		c-2.4,1.6-5.2,3.1-8.4,4.6c-4.3,1.9-9.3,2.8-14.8,2.8c-0.5,0-1.1,0-1.6,0c-0.5,0-1.1,0-1.7-0.1c-3-0.2-5.9-1.8-8.6-4.7
		c-2.7-2.9-5.2-6.5-7.5-10.6c-2.2-4.1-4.1-8.5-5.7-13.1c-1.6-4.6-2.7-8.8-3.4-12.5c4.9-0.9,9.9-2.3,15.1-4.3
		c5.2-2,10.3-4.4,15.2-7.2c4.9-2.8,9.6-6.1,13.9-9.8c4.4-3.7,8.2-7.7,11.4-12.1c3.3-4.4,5.9-9.1,7.8-14.1c1.9-5,2.9-10.3,2.9-15.8
		c0-8.2-1.6-15.4-4.8-21.5c-3.2-6.2-7.6-11.3-13-15.3c-5.5-4.1-11.7-7.1-18.8-9.2C636.1,59,628.7,58,621,58
		c-7.9,0-15.4,0.8-22.4,2.5c-7.1,1.7-13.6,3.9-19.5,6.7c-6,2.8-11.3,6-16.1,9.7s-8.8,7.5-12.1,11.4c-3.3,3.9-5.8,7.9-7.6,11.8
		c-1.8,3.9-2.7,7.6-2.7,11c0,3.6,0.9,6.5,2.8,8.5c1.9,2,4.7,3,8.5,3c2.8,0,5.2-0.7,7.1-2c1.9-1.3,3.6-3.1,5.2-5.2
		c1.6-2.1,3.1-4.6,4.5-7.3c1.4-2.8,3.1-5.6,4.8-8.5c1.8-2.9,3.9-5.8,6.4-8.5c2.5-2.8,5.5-5.2,9.1-7.3c3.6-2.1,7.9-3.9,12.9-5.2
		c5-1.3,10.9-2,17.8-2c6.1,0,11.4,0.8,15.9,2.2c4.4,1.5,8.1,3.5,10.9,6c2.8,2.5,4.9,5.5,6.3,8.9c1.3,3.4,2,7,2,10.8
		c0,5.3-1.3,10.7-3.8,16.3c-2.5,5.6-6,10.7-10.4,15.3c-4.4,4.6-9.5,8.3-15.4,11.3c-5.9,3-12.1,4.4-18.7,4.4c-0.5,0-1,0-1.5,0
		c-0.5,0-1,0-1.4-0.1c2-4.3,3.9-8.6,5.7-12.7s3.4-7.9,4.8-11.4c1.4-3.5,2.5-6.5,3.3-9.2c0.8-2.7,1.3-4.8,1.3-6.3
		c0-1.5-0.2-2.7-0.7-3.7c-0.5-1-1-1.7-1.6-2.2c-0.6-0.5-1.3-0.9-2-1.1c-0.8-0.2-1.4-0.3-1.9-0.3c-2,0-4.2,1.2-6.7,3.5
		c-2.5,2.3-5.1,5.4-7.8,9.3c-2.8,3.9-5.6,8.3-8.5,13.3c-2.9,5-5.8,10.2-8.7,15.6l-33.6,63.9c-0.8,1.7-1.5,3.4-1.9,5.3
		c-0.5,1.9-0.7,3.7-0.7,5.6c0,1.3,0.2,2.6,0.5,4s0.9,2.7,1.8,3.9c0.8,1.2,2,2.2,3.5,3c1.5,0.8,3.5,1.2,5.9,1.2c3,0,5.7-1.1,8.2-3.3
		s4.9-5.1,7.1-8.7c2.2-3.6,4.2-7.7,6-12.2c1.8-4.5,3.6-9.1,5.2-13.8c1.7-4.7,3.2-9.2,4.7-13.6c1.4-4.4,2.8-8.2,4.2-11.4
		c2.4,8.2,5.2,16,8.3,23.4c3.1,7.4,6.6,13.8,10.4,19.4c3.8,5.5,8,9.9,12.6,13.1c4.6,3.2,9.7,4.9,15.1,4.9c6.7,0,13.7-1.8,21.2-5.3
		c3.8-1.8,7.6-4.1,11.5-7c0.6,1,1.3,2,2,2.9c2.5,3.1,5.5,5.5,9,7.3c3.5,1.8,7.6,2.7,12.1,2.7c5.3,0,10.7-0.7,16.2-2.2
		s10.7-3.3,15.8-5.5c5-2.2,9.8-4.6,14.3-7.3c0.8-0.5,1.5-0.9,2.3-1.3c-0.8,3-1.2,5.8-1.2,8.4c0,2.8,0.9,4.9,2.7,6.1
		c1.8,1.2,4,1.8,6.6,1.8c8,0,16.7-3.7,25.9-11.1c9.3-7.4,19.6-18.1,30.9-32.2l-22.7,47.9c-5,6.5-9.2,12.2-12.5,17.1s-6,9.3-8,13.2
		c-2,3.9-3.4,7.6-4.2,10.8c-0.8,3.3-1.2,6.6-1.2,9.9c0,3.6,0.9,6.4,2.8,8.5c1.9,2.1,4.4,3.1,7.4,3.1c7.4,0,14.1-6.6,20.2-19.9
		c0.1-0.2,0.6-1.3,1.5-3.3c0.9-2.1,2.1-4.7,3.5-8c1.4-3.3,3-7.1,4.7-11.5c1.7-4.3,3.4-8.9,5.2-13.6c2.3-2.3,4.5-4.3,6.5-6
		c2-1.7,4.1-3.3,6.1-4.8c2.1-1.5,4.3-3,6.7-4.4c2.3-1.4,5-3,8.1-4.7c3-1.7,6.5-3.7,10.5-5.9c2.3-1.3,4.9-2.7,7.7-4.3
		c1.3,3.4,2.9,6.5,5.1,9.1c2.5,3.1,5.5,5.5,9,7.3c3.5,1.8,7.6,2.7,12.1,2.7c5.3,0,10.7-0.7,16.2-2.2s10.7-3.3,15.8-5.5
		c5-2.2,9.8-4.6,14.3-7.3c0.6-0.4,1.2-0.7,1.8-1.1c0.6,1.1,1.3,2.2,2,3.2c2.2,3,4.8,5.4,7.9,7.3s6.5,3.3,10.2,4.2
		c3.7,0.9,7.5,1.4,11.5,1.4c5.2,0,10.4-0.7,15.5-2c5.1-1.3,9.7-3.2,13.6-5.7c4-2.5,7.2-5.5,9.7-9.1c2.5-3.6,3.7-7.6,3.7-12.1
		C997.7,199.3,997.1,195.7,995.7,192z M690.3,186.1c0.9-2.2,2-4.5,3.2-6.9c1.3-2.4,2.7-4.8,4.4-7.3c1.6-2.4,3.5-4.6,5.6-6.6
		c2.1-1.9,4.4-3.5,6.9-4.7c2.5-1.2,5.2-1.8,8.1-1.8c0.4,0,0.7,0,1,0c0.3,0,0.6,0,1,0.1c0.9,0.2,1.7,0.6,2.4,1.3
		c0.7,0.7,1.1,1.7,1.1,2.8c0,1.4-0.6,3.1-1.9,5c-1.3,1.9-3.6,4-7.1,6.2c-0.8,0.5-2.1,1.4-3.9,2.7c-1.9,1.3-4,2.8-6.5,4.5
		c-2.5,1.7-5.2,3.4-8,5.2c-2.8,1.8-5.6,3.4-8.2,4.9C688.8,190.1,689.4,188.3,690.3,186.1z M872.3,186.1c0.9-2.2,2-4.5,3.2-6.9
		c1.3-2.4,2.7-4.8,4.4-7.3c1.6-2.4,3.5-4.6,5.6-6.6c2.1-1.9,4.4-3.5,6.9-4.7c2.5-1.2,5.2-1.8,8.1-1.8c0.4,0,0.7,0,1,0
		c0.3,0,0.6,0,1,0.1c0.9,0.2,1.7,0.6,2.4,1.3c0.7,0.7,1.1,1.7,1.1,2.8c0,1.4-0.6,3.1-1.9,5c-1.3,1.9-3.6,4-7.1,6.2
		c-0.8,0.5-2.1,1.4-3.9,2.7c-1.9,1.3-4,2.8-6.5,4.5c-2.5,1.7-5.2,3.4-8,5.2c-2.8,1.8-5.6,3.4-8.2,4.9
		C870.8,190.1,871.4,188.3,872.3,186.1z"/>
</g>
<g>
	<g>
		<path class="st1" d="M37.3,320.5c-1.5,0.2-1-3.6-1.2-4.3C38.6,317.2,37.3,321.5,37.3,320.5z"/>
		<path class="st1" d="M61,330.6c1.2,1.5,2.4,3,3.6,4.5c-1-0.9-2.1-1.8-3.1-2.8C61.2,331.8,61.1,331.2,61,330.6z"/>
		<path class="st1" d="M71.7,334.8c-0.2,0.5-0.4,1-0.6,1.5c-0.6-1.9-1.2-3.9-1.8-5.8c4.9,1.4,11.2,5.9,14.6,4.3
			C81.8,341.6,75.7,332.7,71.7,334.8z"/>
		<path class="st1" d="M93.4,318.6c0.5,0.1,1.2,0.1,2.3-0.1c-0.7,3.3,2.6,3-2.8,0.9C93.2,319,93.3,318.8,93.4,318.6z"/>
		<path class="st1" d="M93.4,318.6C91.1,318.2,95,315.8,93.4,318.6C93.4,318.6,93.4,318.6,93.4,318.6z"/>
		<path class="st1" d="M101.2,317.8c0.6-2,3.4-2.5,2.4-4c3.2,1.9,2.6,4,0.8,7.3C103.3,320,102.3,318.9,101.2,317.8z"/>
		<path class="st1" d="M107.3,327.5c-0.5-0.4-1.1-0.9-1.6-1.3C106,325.3,106.4,325.1,107.3,327.5z"/>
		<path class="st1" d="M104.1,325.1c0.3,2.5-0.4,0.1-1.9-1.8c1.1,1,2.3,1.9,3.4,2.8C105.3,327.5,105.2,330.2,104.1,325.1z"/>
		<path class="st1" d="M99.5,330.1c-6-1.5-5.1-7.1,0.8-5.7C98.6,326.2,96.4,327.2,99.5,330.1z"/>
		<path class="st1" d="M80.7,341.2c1,1.2,4.5-1.3,4.4,0.8c-0.8,0.6-1.5,1.1-2.3,1.7C82,342.8,81.4,342,80.7,341.2z"/>
		<path class="st1" d="M123.7,316.9c0.2,2.1-1,5.4-1.2,7.8c-0.8-0.8-1.5-1.5-2.3-2.3C121.4,321.2,123.6,320,123.7,316.9z"/>
		<path class="st1" d="M122.5,324.8c1.2,1.2,2.3,2.3,3.5,3.4C122.9,328.4,122.3,326.9,122.5,324.8z"/>
		<path class="st1" d="M102.3,329.9c2.3,2.2,4.5,4.4,6.8,6.6c-0.4-0.1-0.7-0.1-1.1-0.2C106.1,334.3,104.2,332.1,102.3,329.9z"/>
		<path class="st1" d="M134.9,311.8c1.2,2.6,2.3,5.2,3.5,7.7c-0.5-0.8-1-1.7-1.5-2.6C136.2,315.3,135.6,313.6,134.9,311.8z"/>
		<path class="st1" d="M145.6,318c-1.5-4.2,1.9-7.3,0.4-10.1c2.4,0.8,4.4,4.7,6.2,8.1C150.3,314.1,148.3,314.6,145.6,318z"/>
		<path class="st1" d="M155.3,320.8c-1-1-2-2.8-3.1-4.8C153.3,317,154.3,318.5,155.3,320.8z"/>
		<path class="st1" d="M131.8,327.5c0.3-1.1,0.8-4.2,2.7-5.5c-0.4,1.9-0.9,3.7-1.3,5.5C132.8,327.5,132.3,327.5,131.8,327.5z"/>
		<path class="st1" d="M133.1,327.7c0-0.1,0-0.1,0-0.2c1.5,0,2.5-0.1,2.9-0.2C135.7,327.4,134.8,327.5,133.1,327.7z"/>
		<path class="st1" d="M131.5,327.5c0.1,0,0.2,0,0.3,0C131.7,328.1,131.6,328.2,131.5,327.5z"/>
		<path class="st1" d="M119.2,342.1c-1.5-3,0.9-5-2.2-9.3C119,335.6,123.2,338.7,119.2,342.1z"/>
		<path class="st1" d="M125.9,330.2c1.3,1.3,2.6,2.5,3.9,3.7c-1.2,0.3-2.4,0.6-3.6,0.9C126.2,333.5,126.9,331.6,125.9,330.2z"/>
		<path class="st1" d="M129.8,333.9c0.5-0.1,0.9-0.2,1.4-0.3c0.1,0.7,0.3,1.3,0.4,2C131,335,130.4,334.4,129.8,333.9z"/>
		<path class="st1" d="M149.1,326.2c1.6,2.5,3.3,2.8,5.3,3.2c-2.1,1-4.2,1.5-6.3,1.4C147.8,329.1,146.9,325.9,149.1,326.2z"/>
		<path class="st1" d="M141.3,327.4c0.1,0.1,0.2,0.2,0.4,0.3C141.5,328.2,141.3,328.4,141.3,327.4z"/>
		<path class="st1" d="M173.6,330c-0.1,0.3-0.2,0.7-0.3,1c0-0.3,0-0.6-0.1-1C173.3,330,173.5,330,173.6,330z"/>
		<path class="st1" d="M147.7,331.7c-1.6,0.9-2.5-0.4-3.4-2.1c1.2,0.6,2.4,1,3.8,1.1C148.2,331.5,148.2,332,147.7,331.7z"/>
		<path class="st1" d="M160.7,323.8c-0.8,1.2-1.7,2.2-2.7,3.1C158.8,325.2,160.4,322.2,160.7,323.8z"/>
		<path class="st1" d="M142.2,326.3c-0.1-0.1-0.2-0.2-0.2-0.3C142.5,324.8,142.4,325.4,142.2,326.3z"/>
		<path class="st1" d="M142.2,326.3c0.8,0.8,1.5,2.2,2.1,3.4c-1-0.5-1.8-1.1-2.6-1.9C141.9,327.4,142.1,326.8,142.2,326.3z"/>
		<path class="st1" d="M183.5,357c-1.4-0.7-2.8-1.3-4.2-2.1c-0.1,0.9,1.5,2.3,0.3,2.9c-0.3-2.8-4.5-6-8-2.8
			c-3.5-1.9-1.3-14,1.7-24.1c0.1,2.3,0.1,4.3,3.8,7.2c-1.3,2.5-8,5.5-4.9,9.1c4.8,2.2,3.9-1.1,6.2-3.3
			C176.4,348.9,184.5,351.6,183.5,357z"/>
		<path class="st1" d="M166.4,331.3c-0.5-0.2-1-0.5-1.5-0.7c1.7-0.9,2.9-2.8,5.1-7.2c2.5,2.8,3,4.8,3.2,6.6
			c-2.4,0.2-4.9,0.3-7.3,0.5C166.1,330.8,166.2,331,166.4,331.3z"/>
		<path class="st1" d="M158.2,330.4c1.2,5.5,4.8,7.8,2.6,12.7c-4.4-0.5-3.1-4-5.7-6.3c7,1.6-2-2.8,3-5.8c-1.4-1-2.6-1.3-3.8-1.6
			c1.3-0.6,2.5-1.4,3.6-2.5c-0.1,0.1-0.1,0.2-0.2,0.4c0,0,0,0,0,0c0,0,0,0.1,0,0.1c-0.3,0.7-0.4,1.1-0.1,0.7c0,0.1,0.1,0.1,0.1,0.1
			C158,329,158.1,329.7,158.2,330.4c2-1.1,0.3-1.5-0.3-2.2c0-0.3-0.1-0.5-0.1-0.9c0,0,0-0.1,0-0.1c2.4,1.1,4.7,2.2,7.1,3.3
			C163.4,331.3,161.5,331.1,158.2,330.4z"/>
		<path class="st1" d="M123,350.8c0.2-0.3,0.2-0.6,0.2-0.8C123.7,350.5,123.8,350.8,123,350.8z"/>
		<path class="st1" d="M122.8,345.3c0.2,0.2,0.3,0.4,0.5,0.6c2.2-0.9,4.9-4.2,5.7-6c-0.7,3.5-1.5,6-3.2,8.9c-0.5-0.6-1-2.2-2.6-1.9
			c-1.4,1.1,0,1.9,0,3.1C122.2,348.9,119.7,347,122.8,345.3z"/>
		<path class="st1" d="M129,339.9c0.1-0.3,0.1-0.7,0.2-1C129.4,339.1,129.3,339.4,129,339.9z"/>
		<path class="st1" d="M142.3,341.9c2,0.9,3.9,1.7,5.9,2.5c-1,1.2-2,2.3-3,3.4c0-0.7,0.1-1.4,0.1-2.1
			C142,346.3,142.7,343.7,142.3,341.9z"/>
		<path class="st1" d="M173.4,320.6c1.1,3.2,2.3,6.2,3.4,9.1c-0.9-0.9-1.8-1.7-2.6-2.6C174,325,173.7,322.8,173.4,320.6z"/>
		<path class="st1" d="M181.6,322.4c0.7,1.2,1.4,2.3,2,3.5c-0.6,0.7-1.1,1.5-1.7,2.2C181.8,326.2,181.7,324.3,181.6,322.4z"/>
		<path class="st1" d="M612.8,350.1c0.6,0.2,1.2,0.4,1.7,0.7C613.8,350.6,613.2,350.4,612.8,350.1z"/>
		<path class="st1" d="M600.4,351.1c-0.1-0.4-0.2-0.8-0.3-1.3C600.6,350.5,600.9,351,600.4,351.1z"/>
		<path class="st1" d="M369.3,327c2.5-4.8,5.3-13.3,5-6.9c-0.2,2-0.5,4-0.7,5.9C371.8,325.1,370.4,325.8,369.3,327z"/>
		<path class="st1" d="M495.4,342.6c0.7,0.6,1.6,1.2,2.5,1.8c-0.2,0.3-0.5,0.6-0.7,1C496.5,344.4,495.9,343.5,495.4,342.6z"/>
		<path class="st1" d="M503,353.3c-0.7,0.6-1.8,1.1-3.3,1.7C500.8,354.4,501.9,353.8,503,353.3z"/>
		<path class="st1" d="M681.1,349.6c0.7,1.2,1.4,2.4,2,3.6C680,353.3,681.4,351.3,681.1,349.6z"/>
		<path class="st1" d="M260,330.7c2.2-2.4,3.9-3.5,5.4-3.8C262.8,330.6,260.8,335.6,260,330.7z"/>
		<path class="st1" d="M607.6,321.7c1.1,0.4,1.5,0.9,1.5,1.5C608,322.8,607.4,322.3,607.6,321.7z"/>
		<path class="st1" d="M265.4,327c1.9-2.8,4.1-4.5,6.3,0c-0.4,0.6-0.8,1-1.1,1.5C269,327.4,267.4,326.5,265.4,327z"/>
		<path class="st1" d="M928.5,340.1c0.2-0.1,0.4-0.2,0.6-0.3C929.1,340.2,928.9,340.2,928.5,340.1z"/>
		<path class="st1" d="M1000.3,325.4c-0.7-0.1-1.9-0.2-3-0.3C997.9,325.1,998.8,325.2,1000.3,325.4z"/>
		<path class="st1" d="M212.6,325.7C210.9,325.3,212.3,325,212.6,325.7C212.6,325.7,212.6,325.7,212.6,325.7z"/>
		<path class="st1" d="M205.5,349c-0.1-1-0.4-1.7-0.7-2.1C205.2,347.4,205.4,348,205.5,349z"/>
		<path class="st1" d="M288,356.2c0,0,0.1,0,0.1,0C287.7,356.8,287.7,356.7,288,356.2z"/>
		<path class="st1" d="M210.1,328.5c0.6-0.7,1.3-1.4,2.1-1.8C211.9,327.2,211.2,327.8,210.1,328.5z"/>
		<path class="st1" d="M210.5,325.6c-0.6,0.3-1,0.4-1.4,0.6C208.8,325.1,209,324.5,210.5,325.6z"/>
		<path class="st1" d="M212.6,325.7c0.5,0.1,1.1,0.2,2.3,0.4c-0.9-0.1-1.8,0.2-2.6,0.6C212.5,326.3,212.7,325.9,212.6,325.7z"/>
		<path class="st1" d="M795.9,332.3c0.1-0.1,0.2-0.2,0.3-0.3C797.8,333.2,797.1,333,795.9,332.3z"/>
		<path class="st1" d="M411.7,360.8c-0.1,0-0.1,0-0.2-0.1c0.1,0,0.2,0,0.2-0.1C411.8,360.7,411.7,360.8,411.7,360.8z"/>
		<path class="st1" d="M417.6,361.5c-2.5-1.6-3.9-1.4-5.8-0.9c0.6-1.5,1.2-3.5,1.8-6C414.9,357.8,416.2,360,417.6,361.5z"/>
		<path class="st1" d="M607.3,349.7c0.2,0,0.4,0,0.7,0C607.7,349.8,607.5,349.8,607.3,349.7z"/>
		<path class="st1" d="M877,320.6c0.1,0,0.2,0,0.3,0C877.1,320.6,877,320.6,877,320.6z"/>
		<path class="st1" d="M758.7,345.8c0.2,0,0.3,0,0.5,0C759.1,345.9,758.9,345.9,758.7,345.8z"/>
		<path class="st1" d="M1009.4,338.5c-4.3-4.3-11.2,4.6-18.3-1.6c-1.5,0.8,1.3,1.6,0.5,2.6c-1.8-2.1-4-2.7-7.9-2.2
			c0.2,0.2,0.3,0.4,0.5,0.5c-11.2-1.4-16,0.3-28.6,1.3c0.3-0.9,0.6-1.8,0.9-2.7c-2.7,0.2-3.3,1-4.5,1.7c-3.2-4.3,7.6,0,4.7-4.3
			c-3.5,5-19.1-1.3-21.4,5.4c-4.2-0.2,1.2-3.5-3-3.5c-0.4,0.6-0.7,1.2-1.1,1.8c-0.4-0.8-0.7-1.6-1.1-2.4c-2.7,0.2-4.1,2.5-4.2,4.3
			c0.7-0.2,1.9,0.5,2.6,0.7c-3.3,2.2-9.1-0.6-10.9-0.4c1.2-0.4,2.4-0.7,3.7-1.1c-11.4-2.2-25.2,0.3-36.2-4c0.3-0.5,0.5-1,0.8-1.5
			c-8.4-2.7-6.7,1.5-15.9,0.2c0.1,0.1,0.2,0.2,0.3,0.4c-1.9-1.5-4.3-2.2-6.8-2c2.3,1.6-4.3,3.3-1.3,5.5c-9.1-3.1-4.5-2.8-10.6-7.8
			c-0.5,0.7-0.9,1.4-1.4,2.2c-2.1-2.1-2.3-3-6.9-3.5c3.8,1.7-2.9,3.2,1.4,6.1c-9.6,6-14.4-5.8-18.7,3c-4.5-7.5,8.3-4.2,5.8-5.7
			c2.1-2.2-3.7-4.4-6.7-3.8c-3.1-0.3-5.2,8.1-12.9,8.6c0.8-0.1,0.8,0.5,1.6,0.5c-2.9,2.1-5.7-2.6-9.2,0.8c-2-4.6-4.6,0.2-5.2-5.3
			c2.4,0.3,4.7,0.7,7.1,1c-4-1.5-7.9-6.8-14.5-4c0.5,0.9,2.5,2.2,3.9,2.9c-1.9,1.6-3.7-0.9-5.7,0.8c0.6,5.7,8.7,0.8,13,5.4
			c-2.1,2.8-8.2-4.4-6,2.6c-3.2-8.7-7.6,1.2-12.9-5.1c0.1,1.2,0.3,2.4,0.4,3.7c-0.8-0.6-2.6-2.3-4.1-2.1c0.9,1.6,1.9,3.2,2.8,5
			c-4.3-4.4-8.2,4.3-12.3,2c8.5-0.3,1.9-5.2,5.5-7.8c-10.4-4.6-6.1,9.7-17.3,9.2c1.8-0.1,5.2-3.1,3-4.6c-2.2,0.9-5.2,2.6-6.5,4.9
			c-7.8-0.6,1.2-4.4-2.2-6.6c-2.6,4.8-3.8-1.8-7.3-2.9c0,1.2,0,2.4,0,3.7c-8.9,2.7-2.4-7.5-10.4-4.2c1.1,1.5,2.3,3.1,3.4,4.9
			c-1.4-0.4-2.8-0.8-4.2-1.2c0.3,1.4,0.6,2.9,0.9,4.4c-4.6-3.2-6-2.2-10.4-0.7c1-2.9-0.6-6.7-4.6-6.6c-2.7,2.2,1.5,3.3-4.1,3.1
			c1.3,2.2,2.7,5.3,5.1,1.5c0.3,1.2,1.3,2.4,1.5,3.7c-2.9,3-7.3,1-9.3,1.1c0.8-0.2,1.7-0.5,2.2-1.1c-2.7-1.7-5.4-3.3-8.1-4.9
			c-1.3,1.4-0.2,2.5,0.8,3.6c-1.6-0.3-2.8-2-5.2-2.2c0.7,3,0.5,6.4,4,7.9c-2.6-1.2-5.2-2.3-7.7-3.3c-0.5,1.4-3.9,4.2-2.9,5.4
			c-4.3,2.1-10.5-6-16.2-3.1c-0.3-0.6-0.9-1.2-2.1-1.5c-5.3,1-10,5.1-16.4,1.2c-1.2,1.9-2.4,3.8-3.5,5.8c-5-1.1,4.8-7.4-3.5-8.7
			c-5.8-1.3-2.1,4.5-4.2,6.3c-2.9-2.7-8-7.5-13.3-3c1.8,0.9,3.2,0,4.8,0.3c-1.4,1-2.7,2.1-4.1,3.1c5,4.6,8.5,2.9,4.7,7.4
			c-0.7-10.7-15.9-0.7-16.5-10.5c-0.9,0.7-1.8,1.5-2.7,2.2c0.8-0.1,0.9,0.4,1.7,0.3c-5.2,4.9-4-6.7-10.7-4.8c-2.3,0.9-4,2.3-2.4,3.3
			c-1.8-0.6-3.5-1.3-5.3-1.9c-1.3,0.2-1.2,1.3-0.3,1.5c-2.4-0.1-4.9-0.1-7.3-0.2c0,0.1,0,0.2,0.1,0.3c-1.2-1.3-3.8-3.3-5-4.1
			c-2,1.4,1,0.8,0.5,2c-1.5-0.6-3-1.2-4.4-1.8c-1.8,2.4,1.9,4.3,5,3.8c-4,9-3.7-1.9-12.6,3.7c1.4,0.3,2.8,0.6,4.2,0.8
			c-2.6,5-5.9,3.4-10.6,6.4c1.1-1.4,9.4-7.8,4.5-9.7c-1.3,0.7-3.1,1.1-5.7-0.4c0,3-2.5,2.4-5.7,2.4c0.1,1.3,0.2,2.5,0.3,3.8
			c-3.4-0.9-3.2-2.8-5.2-4.4c-3.8,0.6-4.6,3.6-5.4,5.9c-6.1,0.9,4.2-4.7-3.1-5c-5.1,1.7-8.6,0.5-14.7-1.3c-3.5,1.5,0.6,2.1-0.6,3.2
			c-1.1-0.8-2.1-1.7-3.2-2.6c-0.8,0.1-0.5,1-0.4,1.4c-2.7-0.9-0.3-3.5-4.4-4.3c-1.2-3.9-8.5,6.5-13.7,2.3c-1.3,1.1,0.6,2.1,0.3,3.4
			c-7.1-2.2-6.1-1.5-12-5c-1.6,0.9-3.3,1.8-4.9,2.7c3.6-2.8-1.1-5.9-5.2-8.8c1.3-1.7,2.4-3.3,3.1-4c-2.2-0.7-4.4-1.4-6.5-2.1
			c-0.8,0.9-0.1,2.5,1,4.4c-0.4-0.3-0.9-0.7-1.2-1c-2.3,1.9-1.1,4.4,0.6,6.5c0.8-0.9,1.6-1.8,2.3-2.8c1.6,2.5,3.2,5,2.9,7.1
			c-0.4-0.4-1.2-0.7-2.1-0.8c0.4,0.6,0.7,1.1,0.5,1.4c-0.2,0.4-0.9-0.3-2-1.2c-0.5,1.4-1,2.6-1.4,3.8c-0.1-0.4-0.3-0.9-0.4-1.4
			c-2.8,1-5.7,1.9-8.5,2.7c-6.1-2.6-11.5-8.7-21.2-10.2c2.4,3.4,0.6,5.6,0.7,8.7c2.6-3.5,7.5,0.9,12.5-0.1c-2.6,0.5-2,1.9-1.3,2.2
			c-3-0.7-6-1.4-9-2.2c0.2,2.4-1.9,1.9-4.2,2.9c1.7-4.5-6.7-2.7-10.4-3.9c-0.2,1.8,0.7,3.2,5.1,2.6c-4.8,3.9-6.4-5.2-11.2-1.8
			c1.1,0,1.7-0.3,2.1,0.5c-2.5-1.4-8.7,0.3-7.2,1.6c0.4,0,0.7,0,1.1,0c-7.2,0.8-21.9,1.8-23-2.8c-0.1,0.9,1,5.2,1.5,5.6
			c-4.3-3.2-8.7-8.8-13-17.2c1.2,7.6-3,17.6,2.9,17.8c-1.7,0.4-3.8,0.9-7.4,0.3c1.2-0.1,2.8-4.6,1.2-5.2c-4.3,4.4-3,2.6-8.4,5.5
			c1.7-0.2-0.3-5.6-3-5.6c0.4,1.3-0.2,5.6,0.9,5.7c-2.2-1.1-4.4-2.5-6.6-4.3c1.2,1.5-0.1,4.4-1.5,5.2c0.7-0.7-5.9,0.3-7.8,0.1
			c1-0.3,1.9-0.6,2.9-1c-7.8,1.8-7.8-6.9-15.5-7.1c0.9,2.1,2.4,7.9-1.5,8.1c-1.8,0.1-8.1-15.4-15-21.8c-0.4,1.2-0.9,2.4-1.3,3.5
			c-1.8-1.2-3.5-2.4-5.3-3.7c3.3,10.8,12.6,22,17.6,22.6c-2.9,0.9-0.8,1-5.1,1.1c-1.5,0.6,2.4,0.6,3.7,0.6
			c-3.4,0.2-6.8,0.3-10.1,0.4c0.4-0.5-7.8-0.3-7.5-1.9c3.7,0.6,7.4,1,11.1,1.3c0.4-0.5-6.5-6.7-13.7-6.1c-1.8,2,1.4,5.6,1.3,5.8
			c-0.9-0.5-6.8-1-7.5-0.5c1,0.3,2,0.6,3.1,0.8c-4,0.9-6.6-2.1-11.4-0.2c-1.7,0.4-4.9,1.7-5.2,1.1c1.3-0.5,2.1-2.6,2.3-7.6
			c0.2-4.6-0.2-12.2-1.1-15.3c-0.6,0.7-8.7,8-10.5,10.9c-2.7,5.2,4.2,9.3,1.9,10.8c-0.1-0.5-1.6-1.4-2.3-1.7c-1.7,0.8,0.8,2-3,1.9
			c-0.7-2.4-7.7,0.6-1.8-2.1c-3.7-0.8-3.9,0.7-8.3,0.7c1.4-1.4-4-8.6-7.7-10.7c0.2,1.5-0.6,3.3-1,4c-7.6,0.7-11.6,2.8-18.7,2.9
			c-0.6,1-4,2.3-2.6,3.6c-1-0.5-2-1.7-4.2-1.8c-4.2,3,4.9,0.7,1.7,3.6c-0.3-1.4-5.7-2.2-8.8-3.5c0.9-3.7,7.2-0.6,10.3,0.6
			c0-4.2-5.5-12.6-12.9-16.9c-5.9-2.1-2.5,5.7-3.5,4.4c-11,2.3-9.5-16.4-18.6-9.5c-3.6,6.5-0.1,11.6-0.9,14.7
			c4.8,1.7,7.3-2.8,10.6-2.7c-1.3,0.8-2.7,1.5-4,2.2c1.5,1.5,4.7,2.5,6.5,1.3c-3,3.7-18.7,0.8-27.1,3.7c-1.5-1.2-4.2-2.6-2.9-4.3
			c0.9,0.2,1.8,0.4,2.7,0.6c2.4-3.5-5.1-5.3-1.7-7.2c-3.6-3-7.7-8.7-12.8-6c-0.3,2.3-0.6,4.4-0.9,6.4c0.1-1.7,3.3-3.6,4.7-1.7
			c-2.1-2.7-7.8,8-10.1,0c1.2-1.4,2.4-2.9,3.5-4.4c-3.7-3.4-8.2-11.9-12.7-9.6c2-8.1,1,1.2,4.2-8.7c-2.6,11.7,10.4,0.9,7.6,10.8
			c3-8.9,5.4-3.3,9.5-13c-0.1,3.1-1.5,5.7,2.3,4.3c0.2,0.9,0.6,1.9,0.8,2.5c0.1-0.1,0.2-0.1,0.3-0.2c-0.1,0.1-0.1,0.2-0.2,0.3
			c0.2,0.4,0.2,0.5-0.1,0.1c-0.9,1.2-1.6,2.7-1.9,4.2c1.9,6,7.9,5.8,10,8.6c2.2-1.1-1-2.7,0.3-5.4c1,1.5,2,3,3.1,4.4
			c0.3-5.3,5.9-9.4,0.6-13.2c1.6-0.1,3.2-0.2,4.8-0.3c2.8-3.7,6.6-5.2,9-2.4c2.2-1.4,5.7,7.2,3.7,2.1c2.5,1.3,5,2.7,7.5,3.9
			c0-0.5,0-1,0.1-1.6c7.4-0.8,15.2,10.2,23.6-1.1c2.5,1.6,5.1,3.5,9.2,1.7c0.3-1.8,0.5-3.7,0.8-5.6c3.2,2,9.5-6,10.9,0.1
			c3.4-16.3,15.5-3.7,21-6.6c0.1,2.7,0.2,5.2,0.2,7.6c3.9-0.5,7.6,1.6,12.4,4.2c-0.1,2-0.2,3.9-0.3,5.8c4.2,4.4,10.6-4.2,17.1-3.9
			c-0.5-2.2-2.1-1.6-3.3-0.2c7.7-13.4,16.5,9,23.5-0.7c1.8,2,3,1.2,4.3-0.2c-0.2,0-0.3-0.1-0.4-0.3c0.2-0.1,0.4-0.1,0.7-0.1
			c0.8-1,1.6-2.2,2.4-3.1c-0.7,1.4-1.4,2.6-2,3.1c1.4,0.1,3.4,0.7,5.5,2c0.3-1.9,0.6-4,0.8-6.1c0.2,0.1,0.3,0.1,0.5,0.2
			c2-2.4,1.6,3.1,0.6,7.3c1,0.9,2,2,2.7,3.2c1.6-9,5.3,2.9,7.5-6.9c1.3,4.4,8.9,3.7,10.9,10.4c2.2-1.1,4.5-2.1,6.5,0.1
			c0.3-2,0.6-4.1,0.9-6.4c1.7,2.9,3.3,5.6,5,8.1c3-3.7,4.2-5.9,1.2-11c7.2,7.5,5.8,2.9,12,9.6c-0.1-1.2-0.2-2.5-0.3-3.8
			c2.2,0.1,5.7,4.9,7,1.7c4.8-7.6,24.1-2.3,36.6-9.8c-2.3,11.4,5.8-5.3,6.3,3.4c0.7-2.6,2.4-4.2,0.4-6.6c6.4,2.4,9.6-4.6,14,2.6
			c0.7-2.6-1.4-3.9-0.8-5.5c0.5,0.6,2,2.3,2.7,0.7c0.6-1.7-1-2.3-2-3.5c6.5,0.4,7.2,9,7.8,15.5c3.3-3.4,4.9-2.9,7.4,1.1
			c1.1-2.1,3-4.5-1-5.1c2.3-0.5,13.9-3.9,14.2,1.3c0.7-1.4,3.2-0.6,3.8,0c5.1-0.6,5.6-1.1,10.6-0.9c-0.5,0.3-0.9,0.6-1.4,0.9
			c2,5.7,4.2,1,8.2,1.5c0-0.2-0.1-0.4-0.1-0.6c9.3-4.7,4,1.7,13.2-3.6c-0.2,1.2-0.3,2.4-0.5,3.5c0.9,7.2,8.1-4.8,13.4-2.4
			c-0.6,0.7-1.3,1.4-1.9,2c2.9,2.3,8-10.3,10.9-11.3c0.6-0.7-1-1-1.9-1.5c7.6-4.5,1,4.5,6.7,5.2c1-2.3-1.4-5.9,2.4-6.4
			c1.9-1.7,11.2,7,16.4,2.6c-1.1,1.7-2.3,3.4,0.4,4.5c4.1,0.3,10.9-6.4,14.6-1.7c0.5-0.4,0.7-0.8,0.7-1.2c3.1,1.1,10.1,1.6,12,4
			c2.8-9.1,19.3,3.2,19.1-4.7c3.2,0,6.4,0,9.5,0.1c-0.1-0.2-0.2-0.5-0.3-0.7c6.1-0.6,8.3,0.9,10.4,2.5c1.4-0.6,0.4-1.2,0.2-1.5
			c8.9-1.6,9.8-1.4,17.3,1.6c0.2-0.8,0.5-1.5,0.7-2.2c2,0.9,12.8-3.2,21.6-1.4c-0.1-0.2-0.3-0.5-1-0.7c9.9,1.3,23.4-3.8,27.1,0.7
			c2.2,0.4,4.3,0.8,6.5,1.2c-8.4,0.7,1.3,2.9-2.1,4.6c3.3,0.3,8.5-2.9,4.4-3c-0.2,0.1-0.4,0.3-0.6,0.4c-1.6-3.5,10.4-1.6,10.1-3.5
			c16.5-0.3,32.5-1.4,48-1.2c-0.6,0.2-1.2,0.6-1.7,1.1c1.8,0,3.6-0.1,5.4-0.1c1.4-0.4,1.9-0.9-2-0.8c2-0.4,6.5,0.3,6.6,0.7
			c7.5-0.6-3-1-0.7-1c1,0,2.1,0,3.1,0.1c-0.2,0-0.5,0-0.7,0c2.6,0.2,2.8,0.7,7.4,0.6c2.9-0.2,1.5-0.5,2.6-0.5c0,0,0.4,0,1.8,0
			c2.3,0,4.5,0,6.8,0c-0.9,0.1-1.8,0.2-2.7,0.5c3,0.5,6.4-0.2,3.3,1.2c4.5-2,25.3-0.5,28.1-1c4.2,0.6,8.4,0.8,13.6,0.7
			c-1.3,0.1-2,1.7,2.4,1.6c-1.7-2.9,7.6-1.3,11.4-2.1c-1.8,0.4,12.7,0.1,7.9,1.4c3.7-0.1,0.2-0.9,3-1c8.9,0.7,19.4,0.3,30.4,0.8
			c0.2,0.1-1.6,0.4,0.7,0.9c1.9-0.4,3.8-0.7,5.7-0.8c2.2,0,2.1,1.3,6,0.6c-0.5,0.2-1.4,0.5,0.1,0.7c21.3-1,43.7,4.2,65.3,0.9
			c-2.9,0.9-1,1.1,1.3,1.2c-1.5,0.2,0.1,1.4-0.2,2.2c3-0.5,6-1.1,9-1.7c1.7,2.5,9.7,0.7,10.7,3.3c-1-0.2-1.9-0.5-2.9-0.7
			C1017.9,331.6,1008.8,334.3,1009.4,338.5z M586.1,351.5c-1.4-3.4-2.4-1.6-4.4-0.5C582.9,351.5,585.3,353.3,586.1,351.5z
			 M492.7,350.1c-1.1-0.2-2.4,0.1-3.8,0.9C489.8,351.9,491.2,351.3,492.7,350.1z M230.3,331.4c0.1,0.1,0.1,0.2,0.1,0.3
			C233.1,329.1,232.2,330.1,230.3,331.4z M395.7,340.3c0.2,0.5,0.3,1,0.4,1.6C396.1,340.9,396.7,340.3,395.7,340.3z M812.9,319.8
			c-0.4,0-0.7,0.1-1.1,0.1C814.3,320.1,813.6,319.9,812.9,319.8z"/>
		<path class="st1" d="M917.7,339.7c-0.1,0-0.2,0.1-0.3,0.1C917.4,339.8,917.5,339.7,917.7,339.7z"/>
		<path class="st1" d="M499.5,353.9c0.3-0.4,0.4-0.9,0.5-1.4C500.4,352.9,500.4,353.4,499.5,353.9z"/>
		<path class="st1" d="M680.7,348.9c0.1,0,0.1,0,0.2-0.1c0.1,0.2,0.2,0.5,0.2,0.7C681,349.3,680.8,349.1,680.7,348.9z"/>
		<path class="st1" d="M310,364.8c1.1-0.2,1.7-0.4,2.2-0.7C312.2,364.4,311.7,364.7,310,364.8z"/>
		<path class="st1" d="M196.2,326.5c0.1-1.4,0.5-3.3,0-4c1.1,0.6,2.1,1.1,3.2,1.7C197.6,323.9,197,325.4,196.2,326.5z"/>
		<path class="st1" d="M196.2,322.6c-0.1-0.1-0.2-0.1-0.4-0.2C196,322.4,196.1,322.5,196.2,322.6z"/>
		<path class="st1" d="M164,354.3c0-0.6,0.1-1.2,0.1-1.8c2.2,0.2,3.7,1.8,1.5,2.4C165,354.4,164.5,354.8,164,354.3z"/>
		<path class="st1" d="M192.7,343.1c-0.3,4.3-2.5,2.8-4.9,1.9c0.1,0,0.3,0.1,0.4,0C187.4,338.8,190,340.9,192.7,343.1z"/>
		<path class="st1" d="M184.9,344.7c-0.3-2.4,0.9-0.5,2.3,0.2C186.4,344.6,185.6,344.5,184.9,344.7z"/>
		<path class="st1" d="M217.9,330.5c-1.2,1.5-0.8-7.4-1.4-5C215.2,317.9,224.3,334.5,217.9,330.5z"/>
		<path class="st1" d="M190.8,355.5c0.3-1.3,0.6-2.7,0.8-4.1c0.5,1.2,0.9,2.4,1.4,3.4C192.3,355,191.5,355.3,190.8,355.5z"/>
		<path class="st1" d="M210.1,353c-1.3,0.4-2.6,0.7-3.9,1.1c0.1-0.7-0.4-1.1-1.1-1.5C207.6,352.5,210.2,351.7,210.1,353z"/>
		<path class="st1" d="M202,351.8c0.7,0.1,2.2,0.2,3.2,0.8C203.9,352.6,202.7,352.5,202,351.8z"/>
		<path class="st1" d="M200.1,355.8c-1.3,0.3-2.6,0.6-3.9,1c0.4-0.2,0.8-0.5,1.2-0.7C198.2,355.9,199.1,355.9,200.1,355.8z"/>
		<path class="st1" d="M254.3,355.3c-1-0.9-2.6-1.5-2-2.9c1.4,0.4,2.9,0.8,4.3,1.2C257.1,355,255.9,355.8,254.3,355.3z"/>
		<path class="st1" d="M241.3,359.8c0.1,1.3,0.1,2.4,0.2,3.3c-0.7-0.4-1.4-0.7-2-1.2C240.6,361.5,240.7,360.9,241.3,359.8z"/>
		<path class="st1" d="M252,362.7c0.4,0.9,6.3,2,0.8,1.9C252.3,364,248,363.4,252,362.7z"/>
		<path class="st1" d="M315.5,348.5c0.3,3.2,0.7,6,1,8.3c-0.4,0-0.7,0-1.1,0C315.4,354.5,315.4,351.7,315.5,348.5z"/>
		<path class="st1" d="M370.2,362.5c3.1,0.5,4.7,0.4,3.3,1.6c-5.1,0.6-1.2-1-5.8-0.3C366.5,363.3,371.5,363.1,370.2,362.5z"/>
		<path class="st1" d="M370.2,362.5c-0.5-0.1-1-0.2-1.6-0.4C369.5,362.3,370,362.4,370.2,362.5z"/>
		<path class="st1" d="M1012.2,324c1.1-0.2,2.2-0.5,3.3-0.7c-0.7,0.4-1.4,0.8-2.1,1.2C1013,324.4,1012.6,324.2,1012.2,324z"/>
		<path class="st1" d="M1018.6,327.3c0.2-0.9,0.5-1.7,0.7-2.6c0.7,0.8,1.3,1.7,2,2.5C1020.5,327,1019.1,326.7,1018.6,327.3z"/>
		<path class="st1" d="M575.3,357.1c-0.8,0.8-1.7,1.5-2.5,2.3c-0.1-0.3-0.2-0.6-0.3-0.9C573,357.4,573.7,357.3,575.3,357.1z"/>
		<path class="st1" d="M617,354.3c-0.3,0-0.5,0.1-0.8,0.1c0.5-1.4,0.9-2.8,1.4-4.2C617.4,351.6,617.2,352.9,617,354.3z"/>
		<path class="st1" d="M654.2,358.5c-1.2,0.2-2.5-0.4-3.7-0.5C653.1,357.4,654.5,353.1,654.2,358.5z"/>
		<path class="st1" d="M650.5,358c-0.4,0.1-0.7,0.1-1.1,0C649.7,357.9,650.1,357.9,650.5,358z"/>
	</g>
</g>
<g>
	<path class="st0" d="M1104.4,53c-3.3-1-6.8,1.3-11.8,7.7c-3.7,4.8-8.4,11.9-13.8,21.4c-9.1,15.8-20.6,38.2-34.1,66.5
		c-4.6,9.7-9.2,19.4-13.6,28.8l-6.7,14.4c-14,30.7-24.4,54.5-24.5,54.9l-0.2,0.3l0,0.4c-3.9,38.2,1.7,79.4,1.8,79.8l0.8,5.5l3.9-4.2
		c25.5-27.7,51.8-63.9,52-64.2l0.2-0.3l0.1-0.4c5.7-18.8,10.9-36.3,15.6-52.6l4.4-15.3c11-38.7,19.1-69.6,24.1-92.2
		C1112.2,59.4,1108.6,54.3,1104.4,53z"/>
	<g>
		<path class="st2" d="M1001.4,334c0,0,40.8-45.4,53.2-65.8l-16.8-11.2l-20.8-6.6l-18.4,1.9C994.7,288.6,1001.4,334,1001.4,334z"/>
		<path class="st3" d="M1001,335.3l18.6-21.3c0,0-8.6-16-21.5-4.7L1001,335.3z"/>
	</g>
</g>
<g>
	<path class="st0" d="M89.2,279.5c-0.7,0.7-1.3,1.5-2.1,2.2c-0.7,0.7-1.5,1.4-2.2,2.1s-1.5,1.3-2.1,1.8c-0.7,0.5-1.3,0.9-1.9,1.3
		c-0.6,0.3-1.1,0.5-1.6,0.5c-0.3,0-0.5-0.1-0.6-0.3c-0.1-0.2-0.1-0.5-0.1-0.8c0-0.4,0-0.7,0.1-1.1s0.2-0.7,0.3-1
		c0.2-0.8,0.5-1.7,1-2.8c0.4-1.1,0.9-2.2,1.4-3.3c0.5-1.2,1-2.3,1.5-3.5c0.5-1.2,1-2.2,1.4-3.2c0.4-1,0.7-1.9,1-2.6
		c0.3-0.7,0.4-1.3,0.4-1.6c0-0.3-0.1-0.6-0.2-0.8c-0.1-0.2-0.3-0.4-0.5-0.6c-0.2-0.2-0.4-0.3-0.7-0.3c-0.2-0.1-0.5-0.1-0.7-0.1
		c-0.5,0-0.9,0.1-1.3,0.4c-0.4,0.3-0.7,0.7-0.9,1.3c-0.3,0.7-0.6,1.4-1,2.2s-0.7,1.6-1.1,2.4c-0.4,0.8-0.7,1.6-1.1,2.4
		c-0.4,0.8-0.7,1.5-1,2.2s-0.6,1.3-0.8,1.9c-0.2,0.6-0.4,1-0.6,1.3l-7.4,0.6h-4.4c0.4-0.6,0.8-1.3,1.3-2.1c0.5-0.9,1.1-1.8,1.7-2.8
		s1.3-2.1,1.9-3.2c0.7-1.1,1.4-2.2,2.1-3.2c0.7-1.1,1.5-2.1,2.3-3c0.8-1,1.6-1.8,2.4-2.5c0.8-0.7,1.6-1.3,2.4-1.7
		c0.8-0.4,1.6-0.6,2.3-0.6c0.5,0,1.1,0.1,1.6,0.4s1.1,0.7,1.6,1.3c0.3,0.4,0.7,0.7,1.1,0.8c0.4,0.1,0.7,0.2,1,0.2
		c0.2,0,0.5,0,0.7-0.1s0.4-0.2,0.6-0.4c0.2-0.2,0.3-0.3,0.4-0.6c0.1-0.2,0.2-0.4,0.2-0.6c0-0.2-0.1-0.4-0.2-0.6
		c-1-1.7-2.1-2.9-3.3-3.6c-1.1-0.7-2.3-1.1-3.5-1.1c-1.3,0-2.5,0.3-3.8,1s-2.6,1.6-3.8,2.7c-1.3,1.1-2.5,2.4-3.7,3.9
		c-1.2,1.5-2.3,3-3.4,4.5s-2.1,3.1-3,4.6c-0.9,1.5-1.7,2.9-2.4,4.1c-0.7,1.2-1.3,2.3-1.7,3.1c-0.4,0.9-0.7,1.4-0.9,1.6l-3.2,5.3
		c-0.2,0.4-0.4,0.8-0.5,1.2c-0.1,0.4-0.2,0.8-0.2,1.2c0,0.2,0,0.5,0.1,0.8c0.1,0.3,0.2,0.5,0.4,0.7s0.4,0.4,0.7,0.5s0.7,0.2,1.2,0.2
		c0.3,0,0.6-0.1,0.9-0.3c0.3-0.2,0.6-0.5,1-0.9c0.3-0.4,0.6-0.8,1-1.2c0.3-0.5,0.6-0.9,0.9-1.4c0.7-1.1,1.3-2.4,2-3.9l4,0l8.5-0.5
		c0,0.1,0,0.3,0,0.6c0,0.3,0,0.7-0.1,1.1c0,0.4,0,0.8-0.1,1.2c0,0.4,0,0.7,0,0.9c0,0.5,0.1,1.1,0.2,1.6c0.1,0.5,0.3,0.9,0.6,1.3
		c0.3,0.4,0.7,0.7,1.1,0.9c0.5,0.2,1,0.3,1.7,0.3c1.2,0,2.3-0.3,3.5-0.9c1.2-0.6,2.3-1.4,3.5-2.4c1.2-1,2.3-2.1,3.4-3.4
		s2.2-2.7,3.3-4.1l-0.9-3.2C90.5,278.1,89.9,278.8,89.2,279.5z"/>
	<path class="st0" d="M186.5,281.2c-0.5-0.7-1.2-1.4-2-2.1c-0.8-0.7-1.6-1.2-2.6-1.8c0.2-0.2,0.5-0.4,0.7-0.6
		c0.2-0.2,0.4-0.4,0.6-0.6c0.2-0.2,0.3-0.4,0.4-0.6s0.2-0.4,0.2-0.6c0-0.2-0.1-0.3-0.2-0.5c-0.1-0.2-0.3-0.4-0.5-0.5
		s-0.5-0.3-0.8-0.4s-0.6-0.1-1-0.1c-0.5,0-0.9,0.1-1.4,0.3s-0.9,0.4-1.3,0.7c-0.4,0.3-0.7,0.6-1.1,1c-0.3,0.4-0.6,0.7-0.9,1
		c-0.1,0.1-0.1,0.3-0.1,0.5c0,0.2,0.1,0.5,0.2,0.7c0.2,0.2,0.3,0.4,0.4,0.4c0.7,0.5,1.5,1,2.2,1.5c0.7,0.5,1.4,1.1,2,1.6
		c0.6,0.6,1.1,1.2,1.4,1.9c0.4,0.7,0.6,1.4,0.6,2.3c0,0.5-0.1,0.9-0.3,1.2c-0.2,0.3-0.5,0.6-0.9,0.8s-0.8,0.4-1.3,0.5
		c-0.5,0.1-1,0.1-1.5,0.1c-0.5,0-1-0.1-1.5-0.2c-0.5-0.1-1-0.3-1.5-0.5s-0.9-0.5-1.3-0.8s-0.7-0.6-0.9-1c-0.1-0.2-0.3-0.4-0.5-0.4
		c-0.2-0.1-0.4-0.1-0.5-0.1c-0.1-0.5-0.2-0.9-0.3-1.4c-0.3-0.8-0.7-1.5-1.2-2.2c-0.5-0.7-1.2-1.4-2-2.1s-1.6-1.2-2.6-1.8
		c0.2-0.2,0.5-0.4,0.7-0.6c0.2-0.2,0.4-0.4,0.6-0.6c0.2-0.2,0.3-0.4,0.4-0.6c0.1-0.2,0.2-0.4,0.2-0.6c0-0.2-0.1-0.3-0.2-0.5
		s-0.3-0.4-0.5-0.5c-0.2-0.2-0.5-0.3-0.8-0.4s-0.6-0.1-1-0.1c-0.5,0-0.9,0.1-1.4,0.3s-0.9,0.4-1.3,0.7c-0.4,0.3-0.7,0.6-1.1,1
		s-0.6,0.7-0.9,1c-0.1,0.1-0.1,0.3-0.1,0.5c0,0.2,0.1,0.5,0.2,0.7c0.2,0.2,0.3,0.4,0.4,0.4c0.7,0.5,1.5,1,2.2,1.5
		c0.7,0.5,1.4,1.1,2,1.6c0.6,0.6,1.1,1.2,1.4,1.9c0.4,0.7,0.6,1.4,0.6,2.3c0,0.5-0.1,0.9-0.3,1.2c-0.2,0.3-0.5,0.6-0.9,0.8
		c-0.4,0.2-0.8,0.4-1.3,0.5s-1,0.1-1.5,0.1c-0.5,0-1-0.1-1.5-0.2c-0.5-0.1-1-0.3-1.5-0.5s-0.9-0.5-1.3-0.8c-0.1,0-0.1-0.1-0.1-0.1
		c0.4-0.4,0.9-0.8,1.2-1.2c0.5-0.5,0.9-0.9,1.2-1.1c0.3-0.3,0.5-0.7,0.5-1.1c0-0.4-0.1-0.7-0.3-1c-0.2-0.3-0.5-0.5-0.8-0.5
		c-0.2,0-0.5,0.1-0.7,0.3c-1,1-2,1.9-2.9,2.7c-0.4,0.3-0.8,0.7-1.2,1s-0.8,0.6-1.2,0.9c-0.4,0.3-0.7,0.5-1.1,0.6
		c-0.3,0.2-0.6,0.2-0.9,0.2c-0.4,0-0.7-0.2-0.8-0.5s-0.2-0.7-0.2-1.2c0-0.4,0.1-0.8,0.2-1.3c0.1-0.5,0.3-1.1,0.4-1.7
		c0.2-0.6,0.4-1.2,0.6-1.8c0.2-0.6,0.4-1.2,0.6-1.8c0.2-0.6,0.4-1.1,0.6-1.6c0.2-0.5,0.3-0.9,0.4-1.2c0-0.1,0-0.2,0-0.3
		c0-0.4-0.2-0.8-0.6-1.1c-0.4-0.3-0.9-0.5-1.5-0.5c-0.2,0-0.4,0-0.7,0.1c-0.3,0.1-0.5,0.2-0.8,0.3c-0.3,0.1-0.6,0.3-0.8,0.4
		c-0.3-0.3-0.7-0.6-1.1-0.8c-0.4-0.2-0.8-0.4-1.3-0.6c-0.5-0.2-1.1-0.3-1.9-0.3c-1.4,0-2.6,0.2-3.7,0.7c-1.1,0.5-2.1,1.1-3,1.9
		c-0.9,0.8-1.6,1.6-2.2,2.6c-0.6,1-1.2,1.9-1.6,2.9c-0.1,0.3-0.2,0.5-0.3,0.8c-0.1,0.1-0.1,0.1-0.2,0.2c-0.6,0.5-1.2,0.9-1.8,1.4
		s-1.3,0.9-1.9,1.3c-0.6,0.4-1.2,0.8-1.8,1.1c-0.6,0.3-1.1,0.6-1.6,0.8c-0.5,0.2-0.9,0.3-1.3,0.3c-0.3,0-0.5-0.1-0.6-0.2
		s-0.1-0.3-0.1-0.6c0-0.4,0.1-0.8,0.3-1.3s0.3-0.9,0.5-1.3c0.4-0.9,0.9-1.9,1.4-3.1c0.6-1.2,1.1-2.4,1.8-3.7
		c0.6-1.3,1.3-2.7,1.9-4.1c0.7-1.4,1.3-2.7,1.9-4c0.6-1.3,1.2-2.5,1.8-3.6c0.6-1.1,1-2,1.4-2.8c0.2-0.4,0.4-0.7,0.5-1
		c0.1-0.3,0.2-0.6,0.2-0.9c0-0.6-0.2-1.1-0.6-1.3c-0.4-0.3-0.9-0.4-1.4-0.4c-0.5,0-1,0.1-1.5,0.4c-0.5,0.3-0.9,0.7-1.2,1.3
		l-7.3,15.5c-0.4,0.8-0.8,1.6-1.2,2.6c0,0,0-0.1,0-0.1c-0.1-0.4-0.3-0.6-0.5-0.6c-0.1,0-0.2,0-0.3,0.1c-0.4,0.2-1,0.5-1.7,1
		c-0.7,0.5-1.4,1-2.2,1.6c-0.8,0.6-1.7,1.2-2.6,1.8c-0.9,0.6-1.8,1.2-2.7,1.7c-0.9,0.5-2,1-3.3,1.6c-1.3,0.5-2.3,0.8-3,0.8
		c-1.4,0-2.5-0.4-3.1-1.1c-0.6-0.7-0.9-1.6-0.9-2.8c0-0.9,0.2-2,0.5-3.2c0.3-1.2,0.8-2.4,1.4-3.6s1.3-2.5,2.1-3.8s1.7-2.5,2.6-3.7
		s1.9-2.3,2.8-3.4s1.9-2,2.9-2.8c0.9-0.8,1.9-1.4,2.7-1.9c0.9-0.4,1.6-0.7,2.3-0.7c0.5,0,0.9,0.1,1.1,0.4s0.3,0.7,0.3,1.1
		c0,0.4-0.1,0.8-0.3,1.3c-0.2,0.5-0.4,0.9-0.7,1.4c-0.3,0.5-0.6,0.9-0.9,1.4c-0.3,0.4-0.6,0.8-0.9,1.1c-0.3,0.3-0.5,0.6-0.6,0.9
		c-0.1,0.3-0.2,0.5-0.2,0.7c0,0.3,0.1,0.5,0.3,0.7s0.4,0.3,0.6,0.4c0.2,0.1,0.5,0.1,0.7,0.2c0.2,0,0.4,0,0.6,0
		c0.6,0,1.2-0.2,1.8-0.5c0.5-0.3,1.1-0.7,1.5-1.3c0.5-0.5,0.9-1.1,1.2-1.8s0.7-1.3,0.9-2c0.3-0.7,0.5-1.3,0.6-1.9s0.2-1.1,0.2-1.6
		c0-0.8-0.1-1.5-0.4-2c-0.3-0.6-0.6-1-1.1-1.3c-0.5-0.3-1-0.6-1.6-0.7c-0.6-0.2-1.3-0.2-1.9-0.2c-1.4,0-2.8,0.3-4.2,0.8
		s-2.8,1.2-4.2,2.1s-2.8,2-4.1,3.2c-1.3,1.2-2.6,2.5-3.8,4c-1.2,1.4-2.3,2.9-3.2,4.5c-1,1.6-1.8,3.1-2.6,4.7
		c-0.7,1.6-1.3,3.1-1.7,4.6c-0.4,1.5-0.6,2.9-0.6,4.2c0,1.1,0.2,2,0.5,2.9c0.3,0.9,0.8,1.7,1.5,2.3s1.5,1.1,2.6,1.5s2.3,0.5,3.8,0.5
		c1.3,0,2.8-0.3,4.5-0.8c1.7-0.5,3.1-1.1,4.2-1.7s2.1-1.2,3-1.9c0.9-0.7,1.8-1.3,2.5-1.9c0.4-0.3,0.7-0.6,1-0.9
		c-0.2,0.5-0.4,1-0.5,1.5c-0.2,0.8-0.3,1.6-0.3,2.4c0,0.5,0.1,0.9,0.2,1.3c0.1,0.4,0.3,0.8,0.6,1.1c0.3,0.3,0.6,0.5,1.1,0.7
		s1,0.3,1.6,0.3c1,0,2-0.2,3-0.6c1-0.4,2-0.9,3.1-1.6c1-0.6,2.1-1.4,3.1-2.2c0.1-0.1,0.2-0.2,0.4-0.3c0,0.8,0.2,1.5,0.5,2.1
		c0.3,0.6,0.8,1.1,1.3,1.5c0.5,0.4,1,0.7,1.6,0.8c0.6,0.2,1,0.3,1.5,0.3c0.8,0,1.6-0.2,2.4-0.6c0.8-0.4,1.6-0.9,2.3-1.4
		c0.7-0.6,1.4-1.2,2-1.9s1.2-1.4,1.7-2.1c-0.1,0.3-0.2,0.6-0.2,0.9s-0.1,0.7-0.1,1c0,0.5,0.1,1,0.2,1.5c0.1,0.5,0.3,0.9,0.6,1.3
		c0.3,0.4,0.6,0.7,1,0.9s0.9,0.4,1.4,0.4c0.6,0,1.3-0.1,2-0.4c0.7-0.3,1.4-0.7,2.2-1.1c0.7-0.4,1.4-0.9,2-1.5
		c0.1,0.1,0.2,0.3,0.3,0.4c0.5,0.6,1,1.1,1.7,1.5c0.6,0.4,1.4,0.7,2.2,0.9c0.8,0.2,1.6,0.3,2.4,0.3c1.1,0,2.2-0.1,3.3-0.4
		c1.1-0.3,2-0.6,2.9-1.2c0.8-0.5,1.4-1,1.9-1.7c0.1,0.2,0.2,0.4,0.4,0.6c0.5,0.6,1,1.1,1.7,1.5c0.6,0.4,1.4,0.7,2.2,0.9
		s1.6,0.3,2.4,0.3c1.1,0,2.2-0.1,3.3-0.4c1.1-0.3,2-0.6,2.9-1.2s1.5-1.1,2-1.9c0.5-0.7,0.8-1.6,0.8-2.5c0-0.7-0.1-1.5-0.4-2.2
		S187.1,281.9,186.5,281.2z M148.8,280.7c-0.2,0.4-0.6,1-0.9,1.5c-0.4,0.6-0.8,1.1-1.3,1.7c-0.5,0.6-1,1.1-1.5,1.6s-1,0.9-1.5,1.2
		c-0.5,0.3-0.9,0.5-1.2,0.5c-0.4,0-0.8-0.1-1.1-0.3c-0.3-0.2-0.5-0.4-0.6-0.7s-0.2-0.6-0.3-1s-0.1-0.7-0.1-1c0-0.8,0.2-1.6,0.5-2.3
		c0.3-0.8,0.8-1.5,1.3-2.1c0.5-0.6,1.2-1.1,1.9-1.5c0.7-0.4,1.4-0.6,2.2-0.6c0.3,0,0.6,0,0.9,0.1c0.3,0.1,0.7,0.2,1,0.4
		s0.6,0.4,0.8,0.6c0.2,0.2,0.3,0.5,0.3,0.8C149.1,280,149,280.3,148.8,280.7z"/>
	<path class="st0" d="M198.3,271.8c0.5,0,1-0.1,1.4-0.3c0.4-0.2,0.7-0.5,0.9-0.8c0.2-0.3,0.4-0.7,0.5-1c0.1-0.4,0.2-0.7,0.2-1
		c0-0.5-0.2-1-0.6-1.4c-0.4-0.4-1-0.5-1.9-0.5c-0.6,0-1,0.1-1.5,0.3s-0.7,0.5-1,0.8s-0.5,0.7-0.6,1.1c-0.1,0.4-0.2,0.8-0.2,1.1
		c0,0.5,0.3,0.9,0.7,1.2S197.3,271.8,198.3,271.8z"/>
	<path class="st0" d="M219.2,282.4c-0.1-0.1-0.2-0.2-0.3-0.3c-0.1-0.1-0.3-0.1-0.5-0.1c-0.2,0-0.5,0.1-0.7,0.2
		c-0.1,0.1-0.4,0.2-0.8,0.5c-0.4,0.3-0.9,0.6-1.6,1c-0.6,0.4-1.3,0.8-2.1,1.2s-1.5,0.8-2.3,1.2c-0.8,0.4-1.6,0.7-2.4,0.9
		c-0.8,0.2-1.6,0.4-2.3,0.4c-0.7,0-1.2-0.2-1.6-0.5c-0.4-0.3-0.6-0.8-0.6-1.3c0-0.4,0.1-0.9,0.3-1.4s0.5-1.1,0.8-1.7
		s0.7-1.2,1.2-1.7s0.9-1.1,1.3-1.5c0.5-0.4,0.9-0.8,1.4-1.1c0.5-0.3,0.9-0.4,1.2-0.4c0.3,0,0.5,0.1,0.6,0.3c0.1,0.2,0.1,0.4,0.1,0.7
		c0,0.3,0,0.5,0,0.8c0,0.3,0,0.5,0,0.6c0,0.2,0,0.4,0.1,0.5c0.1,0.1,0.3,0.1,0.6,0.1c0.6,0,1.1-0.2,1.5-0.5s0.7-0.8,1-1.3
		s0.4-1.1,0.6-1.7c0.1-0.6,0.2-1.2,0.2-1.6c0-0.4-0.1-0.7-0.2-1c-0.1-0.3-0.3-0.5-0.6-0.7c-0.2-0.2-0.5-0.3-0.8-0.4
		c-0.3-0.1-0.6-0.1-1-0.1c-1,0-2.1,0.2-3.1,0.7c-1,0.4-2,1-2.9,1.8c-0.9,0.7-1.8,1.6-2.6,2.5c-0.8,0.9-1.5,1.9-2.1,2.9
		c-0.5,0.9-0.9,1.7-1.2,2.5c-0.1,0.1-0.2,0.2-0.2,0.2c-0.4,0.4-0.9,0.8-1.4,1.2s-1,0.7-1.5,1c-0.5,0.3-1,0.6-1.5,0.7
		c-0.5,0.2-1,0.3-1.4,0.3c-0.4,0-0.7-0.1-0.9-0.2c-0.2-0.1-0.3-0.4-0.3-0.9c0-0.4,0.1-0.8,0.2-1.3c0.2-0.5,0.3-1,0.6-1.5
		c0.2-0.5,0.4-1,0.7-1.5c0.2-0.5,0.5-0.9,0.6-1.3c0.2-0.3,0.3-0.6,0.4-0.9c0.1-0.2,0.2-0.5,0.3-0.7c0.1-0.2,0.3-0.5,0.4-0.8
		s0.3-0.6,0.6-1.1c0.1-0.1,0.1-0.3,0.2-0.4c0-0.1,0-0.3,0.1-0.4c0-0.6-0.2-1.1-0.7-1.5c-0.4-0.4-1-0.6-1.6-0.6
		c-0.4,0-0.7,0.1-1.1,0.3c-0.4,0.2-0.7,0.5-0.9,1c-0.3,0.6-0.6,1.2-0.8,1.7c-0.2,0.4-0.4,0.9-0.6,1.3s-0.3,0.8-0.4,1
		c-0.2,0.6-0.5,1.2-0.8,1.8s-0.6,1.3-0.9,1.9c-0.3,0.7-0.5,1.4-0.7,2.1c-0.2,0.7-0.3,1.4-0.3,2.2c0,1.4,0.4,2.4,1.1,3.1
		c0.7,0.7,1.8,1,3.1,1c0.9,0,1.8-0.2,2.7-0.5s1.8-0.8,2.7-1.4c0.7-0.5,1.4-1,2-1.5c0,0.2,0.1,0.3,0.1,0.5c0.2,0.6,0.6,1.1,1,1.6
		c0.4,0.4,1,0.8,1.6,1s1.4,0.4,2.2,0.4c1.1,0,2.2-0.2,3.3-0.5c1.1-0.3,2.2-0.7,3.2-1.2c1-0.5,2-1,2.9-1.6c0.9-0.6,1.7-1.2,2.4-1.7
		c0.7-0.5,1.3-1,1.7-1.4c0.4-0.4,0.7-0.6,0.8-0.7c0.2-0.3,0.3-0.5,0.4-0.7c0-0.2,0-0.4,0-0.5c0-0.1,0-0.2,0-0.3
		C219.4,282.6,219.3,282.5,219.2,282.4z"/>
	<path class="st0" d="M239.9,273.8c0.9-1.7,1.9-3.4,3-5.1s2.3-3.1,3.6-4.4c1.3-1.3,2.5-2.3,3.8-3.1s2.5-1.2,3.6-1.2
		c0.7,0,1.4,0.2,2,0.5c0.6,0.3,1.2,0.9,1.7,1.7c0.5,0.9,1,1.5,1.5,2s0.9,0.7,1.4,0.7c0.6,0,1-0.2,1.5-0.6c0.4-0.4,0.6-1,0.6-1.7
		c0-0.3,0-0.6-0.1-1c-0.1-0.3-0.2-0.7-0.5-1c-1.2-1.5-2.5-2.6-3.8-3.3s-2.8-1-4.2-1c-1.3,0-2.5,0.2-3.8,0.7s-2.6,1.1-3.8,1.9
		c-1.3,0.8-2.5,1.8-3.7,3s-2.3,2.4-3.4,3.8c-1.1,1.4-2.1,2.8-3,4.3c-0.9,1.5-1.7,3.1-2.4,4.7c-0.7,1.6-1.2,3.2-1.7,4.8
		s-0.7,3.2-0.8,4.7c0,0.1,0,0.2,0,0.3c0,0.1,0,0.2,0,0.3c0,0.9,0.1,1.7,0.4,2.6c0.3,0.9,0.6,1.6,1.2,2.3c0.5,0.7,1.2,1.2,2,1.6
		c0.8,0.4,1.8,0.6,2.9,0.6c1,0,2-0.2,3.1-0.6s2.1-0.9,3.2-1.6c1-0.6,2.1-1.3,3.1-2.1c1-0.8,1.9-1.6,2.8-2.4c-0.3,0.8-0.6,1.6-1,2.6
		c-0.4,1-0.7,1.9-1,2.8c-0.3,0.9-0.6,1.7-0.8,2.4c-0.2,0.7-0.3,1.2-0.4,1.4c0,0.1,0,0.2,0,0.4s0,0.2,0,0.3c0,0.8,0.1,1.3,0.3,1.6
		s0.6,0.4,1.1,0.4c0.3,0,0.6-0.1,0.9-0.3c0.3-0.2,0.6-0.4,0.8-0.7s0.4-0.6,0.6-0.9c0.2-0.3,0.3-0.6,0.4-0.9c0-0.1,0.1-0.3,0.3-0.8
		s0.3-1,0.5-1.6s0.5-1.4,0.7-2.2s0.6-1.6,0.9-2.4c0.3-0.8,0.6-1.6,0.9-2.4c0.3-0.8,0.5-1.5,0.8-2.2c0.2-0.6,0.4-1.2,0.6-1.6
		c0.2-0.4,0.3-0.7,0.3-0.8c0.3-0.7,0.6-1.4,0.9-2c0.3-0.6,0.6-1.3,0.8-1.9s0.5-1.3,0.6-2c0.2-0.7,0.2-1.4,0.2-2.2
		c0-0.3-0.1-0.5-0.2-0.8c-0.1-0.2-0.2-0.4-0.4-0.5s-0.4-0.2-0.6-0.3c-0.2-0.1-0.4-0.1-0.7-0.1c-0.5,0-0.9,0.1-1.4,0.4
		c-0.4,0.3-0.8,0.7-1.1,1.3l-2.2,5.7c-0.3,0.5-0.7,1-1.2,1.7s-1.2,1.3-1.9,2c-0.7,0.7-1.5,1.4-2.3,2.1c-0.8,0.7-1.6,1.3-2.4,1.9
		s-1.6,1-2.3,1.3s-1.4,0.5-2,0.5c-0.5,0-1-0.1-1.3-0.4s-0.6-0.6-0.8-1c-0.2-0.4-0.3-0.8-0.4-1.3s-0.1-0.9-0.1-1.4
		c0-1.3,0.3-2.9,0.8-4.6C238.3,277.2,239,275.5,239.9,273.8z"/>
	<path class="st0" d="M305,282.6c-0.1,0-0.5,0.1-1.1,0.4c-0.7,0.3-1.5,0.6-2.4,1.1c-0.9,0.4-1.9,0.9-2.9,1.5c-1,0.6-1.9,1.1-2.7,1.7
		l5.4-11.2c0.1-0.2,0.1-0.4,0.1-0.6c0-0.3-0.1-0.5-0.2-0.8s-0.4-0.4-0.7-0.4c-0.2,0-0.4,0-0.6,0c-0.2,0-0.4,0.1-0.6,0.2
		c-0.2,0.1-0.5,0.2-0.8,0.4c-0.3,0.2-0.7,0.5-1.1,0.8l-9.9,9.8c-0.2,0.2-0.5,0.4-0.8,0.6s-0.5,0.3-0.7,0.3c-0.2,0-0.3-0.1-0.3-0.4
		c0-0.1,0-0.2,0.1-0.4c0.1-0.1,0.3-0.3,0.4-0.4l0-0.5l4.3-9c0.1-0.1,0.1-0.3,0.1-0.5c0-0.4-0.2-0.7-0.5-0.9
		c-0.3-0.2-0.8-0.3-1.3-0.3c-0.5,0-1,0.1-1.5,0.4c-0.5,0.3-0.9,0.7-1.3,1.4c-0.5,1.2-0.9,2.2-1.3,3.1c-0.4,0.9-0.7,1.6-1,2.3
		c-0.3,0.7-0.6,1.3-0.9,1.8c-0.3,0.5-0.5,1-0.8,1.5c-0.2,0.5-0.5,0.9-0.7,1.4c-0.1,0.1-0.1,0.3-0.2,0.4c-0.8,0.5-1.5,0.9-2.2,1.2
		c-0.7,0.3-1.4,0.4-1.9,0.4c-0.7,0-1.1-0.3-1.1-0.9c0-0.6,0.1-1.3,0.3-2c0.2-0.7,0.5-1.5,0.8-2.2c0.3-0.8,0.7-1.5,1.1-2.2
		c0.4-0.7,0.7-1.4,1.1-2.1s0.6-1.2,0.8-1.7c0.2-0.5,0.3-0.9,0.3-1.2c0-0.5-0.2-1-0.5-1.3c-0.3-0.4-0.8-0.6-1.4-0.6
		c-0.5,0-1,0.2-1.3,0.5c-0.4,0.4-0.7,0.8-0.9,1.3c-0.3,0.5-0.5,1.1-0.8,1.7c-0.2,0.6-0.5,1.2-0.8,1.8c-0.4,0.8-1,1.7-1.6,2.7
		c-0.6,1-1.4,1.9-2.2,2.8s-1.7,1.6-2.6,2.2c-0.9,0.6-1.9,0.9-3,0.9c-0.4,0-0.6-0.1-0.8-0.4c-0.2-0.2-0.2-0.5-0.2-0.8
		c0-0.7,0.2-1.4,0.4-2.1c0.2-0.7,0.5-1.4,0.9-2.2c0.3-0.7,0.7-1.4,1.1-2c0.4-0.7,0.8-1.3,1.1-1.8s0.7-1.1,0.9-1.5
		c0.3-0.4,0.4-0.8,0.5-1.1c0-0.1,0.1-0.3,0.1-0.5c0-0.2-0.1-0.5-0.2-0.6s-0.3-0.3-0.5-0.5c-0.2-0.1-0.4-0.2-0.7-0.3
		c-0.2-0.1-0.5-0.1-0.7-0.1c-0.5,0-1,0.1-1.4,0.4c-0.4,0.3-0.8,0.7-1.2,1.3c-1.3,2.3-2.3,4.3-3.1,5.9s-1.3,2.9-1.6,4
		c-0.3,1-0.5,1.8-0.6,2.2c-0.1,0.5-0.1,0.7-0.1,0.7c0,0.7,0.1,1.3,0.3,1.7c0.2,0.5,0.5,0.8,0.9,1.1c0.4,0.3,0.8,0.5,1.3,0.6
		c0.5,0.1,1,0.2,1.5,0.2c1.2,0,2.3-0.2,3.2-0.5s1.9-0.8,2.7-1.3c0.8-0.5,1.5-1.1,2.1-1.8c0.6-0.6,1.1-1.3,1.6-1.9
		c-0.3,1-0.4,1.8-0.4,2.6c0,1,0.2,1.8,0.7,2.2c0.5,0.4,1.1,0.6,1.9,0.6c0.8,0,1.6-0.2,2.6-0.5c0.8-0.3,1.5-0.7,2.3-1.1c0,0,0,0,0,0
		c0,0.6,0.2,1,0.6,1.2c0.4,0.2,0.9,0.4,1.4,0.4c1.7,0,3.5-0.8,5.5-2.3c2-1.5,4.1-3.7,6.5-6.5l-4.8,9.7c-1.1,1.3-1.9,2.5-2.6,3.5
		c-0.7,1-1.3,1.9-1.7,2.7c-0.4,0.8-0.7,1.5-0.9,2.2c-0.2,0.7-0.3,1.3-0.3,2c0,0.7,0.2,1.3,0.6,1.7s0.9,0.6,1.6,0.6
		c1.6,0,3-1.3,4.3-4c0,0,0.1-0.3,0.3-0.7c0.2-0.4,0.4-1,0.7-1.6c0.3-0.7,0.6-1.5,1-2.3c0.4-0.9,0.7-1.8,1.1-2.8
		c0.5-0.5,1-0.9,1.4-1.2c0.4-0.3,0.9-0.7,1.3-1c0.4-0.3,0.9-0.6,1.4-0.9s1.1-0.6,1.7-1s1.4-0.7,2.2-1.2c0.8-0.4,1.8-1,2.9-1.6
		c0.8-0.4,1.3-0.9,1.6-1.3s0.5-0.9,0.5-1.3c0-0.5-0.2-0.9-0.5-1.2C305.7,282.7,305.4,282.6,305,282.6z"/>
	<path class="st0" d="M351.9,271.8c0.5,0,1-0.1,1.4-0.3c0.4-0.2,0.7-0.5,0.9-0.8c0.2-0.3,0.4-0.7,0.5-1c0.1-0.4,0.2-0.7,0.2-1
		c0-0.5-0.2-1-0.6-1.4c-0.4-0.4-1-0.5-1.9-0.5c-0.6,0-1,0.1-1.5,0.3c-0.4,0.2-0.7,0.5-1,0.8c-0.3,0.3-0.5,0.7-0.6,1.1
		c-0.1,0.4-0.2,0.8-0.2,1.1c0,0.5,0.3,0.9,0.7,1.2S350.9,271.8,351.9,271.8z"/>
	<path class="st0" d="M391,282c-0.1,0-0.3,0-0.5,0.1c-0.2,0.1-0.3,0.2-0.5,0.3c-0.3,0.3-0.6,0.6-1,0.9c-0.4,0.3-0.8,0.7-1.3,1.1
		c-0.5,0.4-0.9,0.7-1.4,1.1c-0.5,0.4-1,0.7-1.5,1c-0.5,0.3-1,0.5-1.5,0.7c-0.5,0.2-1,0.3-1.4,0.3c-0.3,0-0.6,0-0.8-0.1
		c-0.2-0.1-0.3-0.3-0.3-0.6c0,0,0-0.1,0-0.1s0-0.1,0-0.1c0.1-0.6,0.2-1.2,0.5-1.8s0.6-1.1,0.9-1.6s0.7-1,1.1-1.5
		c0.4-0.5,0.8-1,1.1-1.5c0.3-0.5,0.6-1.1,0.8-1.7c0.2-0.6,0.3-1.3,0.3-2c0-0.5-0.1-1-0.3-1.4c-0.2-0.4-0.5-0.7-0.8-0.9
		s-0.8-0.4-1.2-0.5c-0.5-0.1-1-0.1-1.5-0.1c-0.9,0-1.7,0.1-2.4,0.4c-0.7,0.2-1.4,0.6-1.9,1c-0.6,0.4-1.1,0.8-1.6,1.3s-1,0.9-1.4,1.3
		c0.7-1.2,1.4-2.4,2.1-3.6s1.3-2.5,2-3.7s1.3-2.5,1.9-3.7c0.6-1.2,1.3-2.4,2-3.6c0.2-0.3,0.4-0.7,0.6-1.1s0.3-0.8,0.3-1.1
		c0-0.4-0.1-0.7-0.4-1c-0.3-0.3-0.8-0.4-1.5-0.4c-0.3,0-0.6,0-0.9,0.1c-0.3,0.1-0.6,0.2-0.8,0.4c-0.3,0.2-0.5,0.3-0.7,0.5
		c-0.2,0.2-0.3,0.4-0.4,0.6l-6.9,13.6c-0.1,0-0.1,0-0.2,0h-7.8c0.6-1.1,1.2-2.2,1.7-3.2c0.2-0.4,0.5-0.9,0.7-1.3s0.5-0.9,0.7-1.3
		c0.2-0.4,0.5-0.8,0.7-1.2c0.2-0.4,0.4-0.7,0.5-1c0.2-0.4,0.4-0.8,0.5-1.1s0.2-0.6,0.2-0.9c0-0.6-0.2-1-0.6-1.3
		c-0.4-0.3-0.8-0.4-1.3-0.4c-0.5,0-1,0.1-1.5,0.4s-0.9,0.7-1.2,1.3l-5.1,10.1h-2.6c-0.4,0-0.7,0.1-1,0.2s-0.5,0.3-0.7,0.5
		c-0.2,0.2-0.4,0.4-0.5,0.6c-0.1,0.2-0.2,0.4-0.2,0.6c0,0.4,0.2,0.7,0.5,1c0.3,0.3,1,0.4,1.9,0.4h1c-0.4,0.9-0.9,1.8-1.4,2.8
		c-0.3,0.7-0.7,1.4-1,2.1c-0.1,0.1-0.2,0.2-0.3,0.3c-0.4,0.4-0.8,0.8-1.2,1.2s-0.9,0.8-1.4,1.2s-1,0.7-1.5,1c-0.5,0.3-1,0.6-1.5,0.7
		c-0.5,0.2-1,0.3-1.4,0.3c-0.4,0-0.7-0.1-0.9-0.2c-0.2-0.1-0.3-0.4-0.3-0.9c0-0.4,0.1-0.8,0.2-1.3c0.2-0.5,0.3-1,0.6-1.5
		c0.2-0.5,0.4-1,0.7-1.5c0.2-0.5,0.5-0.9,0.6-1.3c0.2-0.3,0.3-0.6,0.4-0.9c0.1-0.2,0.2-0.5,0.3-0.7c0.1-0.2,0.3-0.5,0.4-0.8
		s0.3-0.6,0.6-1.1c0.1-0.1,0.1-0.3,0.2-0.4c0-0.1,0-0.3,0.1-0.4c0-0.6-0.2-1.1-0.7-1.5c-0.4-0.4-1-0.6-1.6-0.6
		c-0.4,0-0.7,0.1-1.1,0.3c-0.4,0.2-0.7,0.5-0.9,1c-0.3,0.6-0.6,1.2-0.8,1.7c-0.2,0.4-0.4,0.9-0.6,1.3c-0.2,0.4-0.3,0.8-0.4,1
		c-0.2,0.6-0.5,1.2-0.8,1.8s-0.6,1.3-0.9,1.9c0,0.1-0.1,0.2-0.1,0.2c-0.4,0.2-0.9,0.4-1.3,0.5c-0.5,0.2-1.1,0.3-1.6,0.4
		c-0.6,0.1-1.1,0.1-1.8,0.1c-0.4,0-0.6-0.2-0.7-0.5c0.4-0.5,0.8-1.2,1.2-1.8c0.4-0.7,0.7-1.4,1-2.1c0.3-0.7,0.5-1.4,0.7-2.2
		c0.2-0.7,0.3-1.4,0.3-2c0-0.5-0.2-1-0.5-1.3s-0.7-0.5-1.3-0.5c-0.6,0-1.1,0.4-1.6,0.9s-0.9,1.3-1.3,2.2c-0.4,0.9-0.8,1.8-1.2,2.9
		s-0.7,2.1-1.1,3.2c-0.2,0.6-0.5,1.1-0.9,1.7s-0.9,1-1.3,1.4c-0.5,0.4-1,0.7-1.4,1s-0.9,0.4-1.1,0.4c-0.4,0-0.6-0.2-0.6-0.6
		l3.8-11.1c0.1-0.2,0.1-0.4,0.1-0.6c0-0.2,0-0.3,0.1-0.4c0-0.9-0.5-1.3-1.5-1.3c-0.3,0-0.5,0-0.7,0.1c-0.2,0.1-0.4,0.2-0.6,0.3
		c-0.2,0.2-0.4,0.4-0.6,0.7c-0.2,0.3-0.4,0.7-0.6,1.2c-0.3,0.7-0.7,1.5-1.1,2.3c-0.4,0.8-0.9,1.7-1.4,2.5s-1,1.6-1.6,2.4
		c-0.5,0.7-1,1.4-1.5,1.9c-0.5,0.5-1,1-1.3,1.3c-0.4,0.3-0.7,0.6-0.9,0.8s-0.5,0.3-0.6,0.4s-0.4,0.1-0.5,0.1c-0.1,0-0.2-0.1-0.3-0.2
		s-0.1-0.3-0.1-0.5c0-0.1,0-0.2,0-0.4c0-0.2,0.1-0.3,0.1-0.4l4.1-9.7c0.1-0.1,0.1-0.3,0.2-0.4s0.1-0.3,0.1-0.4
		c0-0.6-0.2-1.1-0.7-1.5c-0.4-0.4-1-0.6-1.6-0.6c-0.4,0-0.7,0.1-1,0.2c-0.3,0.1-0.5,0.4-0.8,0.8c-0.3,0.4-0.6,0.9-0.9,1.6
		c-0.3,0.7-0.7,1.6-1.2,2.7c-0.2,0.4-0.4,1-0.8,1.7c-0.3,0.7-0.6,1.5-0.9,2.3s-0.6,1.7-0.8,2.5c-0.2,0.9-0.3,1.7-0.3,2.5
		c0,0.5,0.1,0.9,0.2,1.3s0.3,0.8,0.6,1.1c0.3,0.3,0.7,0.5,1.1,0.7c0.5,0.2,1.1,0.3,1.8,0.3c1.1,0,2.2-0.3,3.2-0.9
		c1.1-0.6,2.2-1.5,3.4-2.7c0,1.2,0.3,2,0.8,2.6c0.5,0.6,1.3,0.9,2.5,0.9c1.3,0,2.5-0.4,3.7-1.1c1.2-0.7,2.4-1.7,3.5-3.1
		c0.9,0.5,1.9,0.8,2.8,0.8c0.5,0,1-0.1,1.6-0.2c0.6-0.1,1.3-0.3,1.9-0.6c0.2-0.1,0.4-0.1,0.5-0.2c0,0.1,0,0.2,0,0.2
		c0,1.4,0.4,2.4,1.1,3.1c0.7,0.7,1.8,1,3.1,1c0.9,0,1.8-0.2,2.7-0.5s1.8-0.8,2.7-1.4c0.7-0.5,1.4-1,2-1.5c0,0.1,0,0.2,0,0.2
		c0,0.4,0.1,0.9,0.2,1.3c0.1,0.4,0.3,0.7,0.6,1c0.3,0.3,0.6,0.5,1,0.7c0.4,0.2,1,0.3,1.6,0.3c1,0,2-0.2,3-0.6c1-0.4,2.1-0.9,3.1-1.6
		c0.6-0.4,1.3-0.9,2-1.3c-0.1,0.2-0.2,0.4-0.2,0.6c-0.1,0.4-0.2,0.8-0.2,1.2c0,0.5,0.2,0.9,0.5,1.2c0.3,0.3,0.7,0.5,1.3,0.5
		c0.4,0,0.7-0.1,1-0.3c0.3-0.2,0.6-0.5,0.9-0.9c0.3-0.4,0.6-0.8,0.9-1.3c0.3-0.5,0.5-1,0.8-1.4c0.2-0.5,0.5-1,0.7-1.4
		c0.2-0.5,0.5-0.9,0.7-1.2c0.5-0.8,1-1.6,1.6-2.5s1.2-1.6,1.9-2.4c0.7-0.7,1.4-1.3,2.2-1.8c0.8-0.5,1.7-0.7,2.6-0.7
		c0.3,0,0.5,0.1,0.6,0.2s0.2,0.3,0.2,0.6c0,0.3-0.1,0.5-0.2,0.8c-0.1,0.2-0.3,0.5-0.4,0.8c-0.4,0.6-0.8,1.2-1.2,1.9
		c-0.5,0.6-0.9,1.3-1.3,2c-0.4,0.7-0.8,1.4-1,2.1c-0.3,0.7-0.4,1.5-0.4,2.3c0,1.1,0.3,1.9,1,2.5c0.7,0.5,1.6,0.8,2.7,0.8
		c0.9,0,1.8-0.2,2.7-0.5c0.9-0.3,1.8-0.8,2.8-1.3c0.9-0.5,1.9-1.2,2.8-1.9c0.9-0.7,1.8-1.4,2.7-2.2c0.6-0.4,1-0.9,1.2-1.3
		c0.2-0.4,0.3-0.8,0.3-1.2c0-0.4-0.1-0.7-0.3-0.9C391.5,282.1,391.3,282,391,282z M361.6,286.2c-0.6,0.3-1.1,0.6-1.7,0.8
		c-0.5,0.2-0.9,0.3-1.3,0.3c-0.2,0-0.4-0.1-0.5-0.2c-0.1-0.1-0.2-0.3-0.2-0.5c0-0.4,0.1-0.8,0.3-1.3c0.2-0.5,0.4-1,0.6-1.3
		c0.5-0.9,1-1.9,1.5-3c0.5-1.1,1.1-2.2,1.7-3.4l8-0.1c-0.2,0.3-0.4,0.7-0.6,1.1c-0.4,0.9-0.9,1.8-1.4,2.8c-0.1,0.2-0.2,0.4-0.3,0.6
		c-0.2,0.1-0.3,0.3-0.5,0.4c-0.6,0.5-1.2,0.9-1.8,1.4c-0.6,0.5-1.3,0.9-1.9,1.3C362.9,285.5,362.2,285.9,361.6,286.2z"/>
	<path class="st0" d="M486.7,283.1c-0.1-0.1-0.2-0.2-0.3-0.3c-0.1-0.1-0.3-0.1-0.5-0.1c-0.1,0-0.2,0-0.3,0c-0.1,0-0.3,0.1-0.4,0.2
		c-0.1,0.1-0.4,0.2-0.9,0.5c-0.4,0.3-1,0.6-1.6,0.9c-0.6,0.4-1.3,0.7-2.1,1.1s-1.6,0.8-2.4,1.1c-0.8,0.3-1.7,0.6-2.5,0.8
		c-0.8,0.2-1.6,0.3-2.4,0.3c-0.7,0-1.2-0.1-1.7-0.4c-0.4-0.3-0.7-0.6-0.7-1.1c2.2-0.8,4-1.6,5.4-2.4s2.6-1.6,3.5-2.3
		s1.5-1.5,1.8-2.2c0.4-0.7,0.5-1.4,0.5-2.1c0-1.1-0.3-2-1-2.7c-0.7-0.6-1.7-1-3-1c-1.3,0-2.5,0.2-3.6,0.6s-2.1,0.9-3.1,1.5
		c-0.9,0.6-1.8,1.3-2.5,2.1s-1.4,1.6-1.9,2.4c-0.5,0.8-0.9,1.7-1.2,2.5c-0.3,0.8-0.4,1.5-0.4,2.2c-0.2,0.2-0.5,0.4-0.7,0.6
		c-0.7,0.6-1.5,1.1-2.3,1.5c-0.8,0.4-1.5,0.6-2.2,0.6c-0.4,0-0.6,0-0.9-0.1s-0.3-0.3-0.3-0.7c0-0.4,0.1-0.8,0.3-1.2
		c0.2-0.4,0.5-0.9,0.8-1.3c0.3-0.4,0.6-0.8,0.9-1.2s0.6-0.7,0.8-0.9c0.6-0.7,1.1-1.5,1.6-2.4c0.4-0.9,0.7-1.8,0.7-2.7
		c0-0.6-0.1-1.1-0.3-1.5c-0.2-0.4-0.5-0.8-0.9-1c-0.4-0.3-0.8-0.5-1.3-0.6c-0.5-0.1-1-0.2-1.5-0.2c-0.7,0-1.4,0.1-2,0.3
		c-0.6,0.2-1.1,0.4-1.6,0.7s-1,0.6-1.4,1s-0.8,0.7-1.2,1.1c0-0.5-0.1-1-0.3-1.4c-0.2-0.4-0.5-0.7-0.8-0.9c-0.3-0.2-0.7-0.4-1.1-0.5
		c-0.4-0.1-0.8-0.2-1.3-0.2c-0.9,0-1.7,0.1-2.4,0.4s-1.4,0.6-2,1c-0.6,0.4-1.1,0.8-1.6,1.3c-0.5,0.5-1,0.9-1.4,1.3
		c0.2-0.5,0.3-1,0.3-1.4c0-0.6-0.2-1-0.5-1.3c-0.3-0.3-0.7-0.4-1.1-0.4c-0.5,0-0.9,0.2-1.4,0.5c-0.5,0.3-0.9,0.9-1.1,1.5
		c-0.2,0.4-0.4,0.8-0.6,1.3c-0.1,0.2-0.3,0.3-0.5,0.5c-0.3,0.3-0.7,0.7-1,1.1c-0.4,0.4-0.8,0.8-1.2,1.2c-0.4,0.4-0.9,0.7-1.3,1
		c-0.4,0.3-0.9,0.6-1.3,0.7c-0.4,0.2-0.8,0.3-1.1,0.3c-0.2,0-0.5,0-0.7-0.1s-0.4-0.2-0.6-0.4c0.3-0.7,0.4-1.3,0.6-1.9
		c0.1-0.6,0.2-1.2,0.2-1.6c0-0.9-0.2-1.7-0.6-2.3c-0.4-0.6-0.9-1.1-1.5-1.5c-0.6-0.4-1.2-0.7-1.9-0.8c-0.7-0.2-1.4-0.2-2-0.2
		c-1.4,0-2.7,0.2-3.8,0.7s-2.2,1.1-3.1,1.8s-1.7,1.6-2.3,2.5c-0.6,0.9-1.2,1.9-1.6,2.8c-0.4,1-0.7,1.9-1,2.8
		c-0.1,0.5-0.2,0.9-0.2,1.3c0-0.6-0.1-1.3-0.4-2c-0.3-0.8-0.7-1.5-1.2-2.2c-0.5-0.7-1.2-1.4-2-2.1c-0.8-0.7-1.6-1.2-2.6-1.8
		c0.2-0.2,0.5-0.4,0.7-0.6c0.2-0.2,0.4-0.4,0.6-0.6c0.2-0.2,0.3-0.4,0.4-0.6c0.1-0.2,0.2-0.4,0.2-0.6c0-0.2-0.1-0.3-0.2-0.5
		c-0.1-0.2-0.3-0.4-0.5-0.5c-0.2-0.2-0.5-0.3-0.8-0.4c-0.3-0.1-0.6-0.1-1-0.1c-0.5,0-0.9,0.1-1.4,0.3c-0.4,0.2-0.9,0.4-1.3,0.7
		c-0.4,0.3-0.7,0.6-1.1,1c-0.3,0.4-0.6,0.7-0.9,1c-0.1,0.1-0.1,0.3-0.1,0.5c0,0.2,0.1,0.5,0.2,0.7c0.2,0.2,0.3,0.4,0.4,0.4
		c0.7,0.5,1.5,1,2.2,1.5s1.4,1.1,2,1.6c0.6,0.6,1.1,1.2,1.4,1.9s0.6,1.4,0.6,2.3c0,0.5-0.1,0.9-0.3,1.2s-0.5,0.6-0.9,0.8
		c-0.4,0.2-0.8,0.4-1.3,0.5s-1,0.1-1.5,0.1c-0.5,0-1-0.1-1.5-0.2c-0.5-0.1-1-0.3-1.5-0.5s-0.9-0.5-1.3-0.8c-0.4-0.3-0.7-0.6-0.9-1
		c-0.1-0.2-0.3-0.4-0.5-0.4s-0.4-0.1-0.6-0.1c-0.4,0-0.7,0.2-1,0.5c-0.3,0.3-0.5,0.7-0.5,1.1c0,0.1,0,0.2,0,0.3
		c0.2,0.8,0.5,1.6,1,2.2c0.5,0.6,1,1.1,1.7,1.5c0.6,0.4,1.4,0.7,2.2,0.9s1.6,0.3,2.4,0.3c1.1,0,2.2-0.1,3.3-0.4
		c1.1-0.3,2-0.6,2.9-1.2c0.8-0.5,1.5-1.1,2-1.9c0.4-0.5,0.6-1.1,0.7-1.6c0,0.9,0.2,1.7,0.5,2.3c0.4,0.7,0.8,1.2,1.4,1.6
		c0.5,0.4,1.1,0.7,1.7,0.9c0.6,0.2,1.1,0.3,1.6,0.3c1.2,0,2.3-0.1,3.4-0.4c1.1-0.3,2-0.7,2.9-1.2s1.7-1.2,2.5-1.9
		c0.7-0.7,1.4-1.6,2-2.5c0.4,0.3,0.8,0.5,1.2,0.6c0.4,0.1,0.8,0.2,1.2,0.2c0.6,0,1.2-0.2,1.8-0.5c0.6-0.3,1.1-0.7,1.7-1.1
		c-0.2,0.5-0.5,1.1-0.7,1.5c-0.3,0.8-0.6,1.5-0.8,2.1c-0.2,0.6-0.3,1.1-0.3,1.3c0,0.5,0.2,1,0.5,1.3c0.3,0.4,0.8,0.6,1.4,0.6
		c0.5,0,1-0.2,1.3-0.5s0.7-0.8,1-1.3c0.3-0.5,0.5-1.1,0.8-1.7c0.2-0.6,0.5-1.2,0.8-1.7c0.3-0.5,0.7-1.1,1.1-1.7
		c0.4-0.6,0.8-1.3,1.2-1.9c0.4-0.6,0.9-1.2,1.4-1.8c0.5-0.6,1-1.1,1.6-1.6c0.6-0.5,1.1-0.8,1.8-1.1c0.6-0.3,1.2-0.4,1.9-0.4
		c0.3,0,0.5,0.1,0.6,0.3c0.1,0.2,0.2,0.4,0.2,0.6c0,0.2,0,0.5-0.1,0.7c-0.1,0.2-0.2,0.5-0.4,0.7c-0.6,0.9-1.2,1.8-1.8,2.7
		c-0.6,0.9-1.2,1.7-1.7,2.6s-1,1.7-1.3,2.5s-0.5,1.6-0.5,2.4c0,0.2,0.1,0.4,0.2,0.6c0.1,0.2,0.3,0.3,0.5,0.5
		c0.2,0.1,0.4,0.2,0.6,0.3c0.2,0.1,0.4,0.1,0.6,0.1c0.5,0,1-0.2,1.3-0.5s0.7-0.8,1-1.3c0.3-0.5,0.5-1.1,0.8-1.7
		c0.2-0.6,0.5-1.2,0.8-1.7c0.3-0.5,0.7-1.1,1.1-1.7c0.4-0.6,0.8-1.3,1.2-1.9c0.4-0.6,0.9-1.2,1.4-1.8c0.5-0.6,1-1.1,1.6-1.6
		c0.6-0.5,1.1-0.8,1.8-1.1c0.6-0.3,1.2-0.4,1.9-0.4c0.3,0,0.5,0.1,0.6,0.3c0.1,0.2,0.2,0.4,0.2,0.6c0,0.2,0,0.5-0.1,0.7
		c-0.1,0.2-0.2,0.5-0.4,0.7c-0.4,0.6-0.8,1.2-1.3,1.8c-0.5,0.6-1,1.2-1.4,1.9c-0.4,0.6-0.8,1.3-1.1,2c-0.3,0.7-0.5,1.5-0.5,2.3
		c0,1.2,0.4,2.1,1.1,2.7c0.7,0.6,1.7,0.8,2.9,0.8c0.9,0,1.8-0.2,2.8-0.5c0.9-0.4,1.8-0.8,2.8-1.4c0.8-0.5,1.7-1.1,2.5-1.8
		c0.3,0.6,0.6,1.2,1,1.7c0.5,0.6,1.2,1.1,1.9,1.5c0.7,0.4,1.6,0.6,2.6,0.6c1.1,0,2.3-0.1,3.4-0.4c1.2-0.3,2.3-0.7,3.3-1.1
		c1.1-0.4,2.1-0.9,3-1.5c1-0.5,1.8-1,2.5-1.5c0.7-0.5,1.3-0.9,1.8-1.3c0.5-0.4,0.7-0.6,0.8-0.6c0.2-0.3,0.3-0.5,0.4-0.7
		c0-0.2,0-0.4,0-0.5c0-0.1,0-0.2,0-0.3C486.8,283.3,486.8,283.2,486.7,283.1z M426.4,283c-0.3,0.8-0.8,1.5-1.3,2.2
		c-0.5,0.6-1.2,1.1-1.9,1.5c-0.7,0.4-1.4,0.6-2.2,0.6c-0.5,0-0.9-0.1-1.2-0.3s-0.5-0.5-0.7-0.8c-0.2-0.3-0.3-0.6-0.3-1
		c0-0.4-0.1-0.7-0.1-1c0-0.8,0.2-1.6,0.5-2.4c0.3-0.8,0.7-1.5,1.3-2.1s1.2-1.1,1.9-1.5c0.7-0.4,1.4-0.6,2.2-0.6
		c0.5,0,0.9,0.1,1.2,0.3c0.3,0.2,0.5,0.4,0.7,0.7s0.2,0.6,0.3,1c0,0.3,0.1,0.7,0.1,1C426.8,281.4,426.7,282.2,426.4,283z
		 M470.9,282.2c0.2-0.4,0.4-0.9,0.7-1.4c0.3-0.5,0.6-1,0.9-1.5c0.3-0.5,0.7-0.9,1.2-1.3c0.4-0.4,0.9-0.7,1.5-1
		c0.5-0.2,1.1-0.4,1.7-0.4c0.1,0,0.2,0,0.2,0s0.1,0,0.2,0c0.2,0,0.4,0.1,0.5,0.3s0.2,0.3,0.2,0.6c0,0.3-0.1,0.6-0.4,1
		c-0.3,0.4-0.8,0.8-1.5,1.3c-0.2,0.1-0.4,0.3-0.8,0.6c-0.4,0.3-0.9,0.6-1.4,0.9c-0.5,0.3-1.1,0.7-1.7,1.1c-0.6,0.4-1.2,0.7-1.7,1
		C470.6,283,470.8,282.7,470.9,282.2z"/>
	<path class="st0" d="M583.4,281.2c-0.5-0.7-1.2-1.4-2-2.1s-1.6-1.2-2.6-1.8c0.2-0.2,0.5-0.4,0.7-0.6c0.2-0.2,0.4-0.4,0.6-0.6
		c0.2-0.2,0.3-0.4,0.4-0.6s0.2-0.4,0.2-0.6c0-0.2-0.1-0.3-0.2-0.5s-0.3-0.4-0.5-0.5c-0.2-0.2-0.5-0.3-0.8-0.4
		c-0.3-0.1-0.6-0.1-1-0.1c-0.5,0-0.9,0.1-1.4,0.3s-0.9,0.4-1.3,0.7c-0.4,0.3-0.7,0.6-1.1,1s-0.6,0.7-0.9,1c-0.1,0.1-0.1,0.3-0.1,0.5
		c0,0.2,0.1,0.5,0.2,0.7c0.2,0.2,0.3,0.4,0.4,0.4c0.7,0.5,1.5,1,2.2,1.5s1.4,1.1,2,1.6c0.6,0.6,1.1,1.2,1.4,1.9s0.6,1.4,0.6,2.3
		c0,0.5-0.1,0.9-0.3,1.2s-0.5,0.6-0.9,0.8c-0.4,0.2-0.8,0.4-1.3,0.5s-1,0.1-1.5,0.1c-0.5,0-1-0.1-1.5-0.2c-0.5-0.1-1-0.3-1.5-0.5
		c-0.5-0.2-0.9-0.5-1.3-0.8c-0.4-0.3-0.7-0.6-0.9-1c-0.1-0.2-0.3-0.4-0.5-0.4c-0.2-0.1-0.4-0.1-0.5-0.1c-0.1-0.5-0.2-0.9-0.3-1.4
		c-0.3-0.8-0.7-1.5-1.2-2.2c-0.5-0.7-1.2-1.4-2-2.1s-1.6-1.2-2.6-1.8c0.2-0.2,0.5-0.4,0.7-0.6c0.2-0.2,0.4-0.4,0.6-0.6
		c0.2-0.2,0.3-0.4,0.4-0.6c0.1-0.2,0.2-0.4,0.2-0.6c0-0.2-0.1-0.3-0.2-0.5s-0.3-0.4-0.5-0.5s-0.5-0.3-0.8-0.4
		c-0.3-0.1-0.6-0.1-1-0.1c-0.5,0-0.9,0.1-1.4,0.3s-0.9,0.4-1.3,0.7c-0.4,0.3-0.7,0.6-1.1,1s-0.6,0.7-0.9,1c-0.1,0.1-0.1,0.3-0.1,0.5
		c0,0.2,0.1,0.5,0.2,0.7c0.2,0.2,0.3,0.4,0.4,0.4c0.7,0.5,1.5,1,2.2,1.5s1.4,1.1,2,1.6c0.6,0.6,1.1,1.2,1.4,1.9s0.6,1.4,0.6,2.3
		c0,0.5-0.1,0.9-0.3,1.2c-0.2,0.3-0.5,0.6-0.9,0.8c-0.4,0.2-0.8,0.4-1.3,0.5s-1,0.1-1.5,0.1c-0.5,0-1-0.1-1.5-0.2
		c-0.5-0.1-1-0.3-1.5-0.5c-0.5-0.2-0.9-0.5-1.3-0.8c-0.1,0-0.1-0.1-0.1-0.1c0.4-0.4,0.9-0.8,1.2-1.2c0.5-0.5,0.9-0.9,1.2-1.1
		c0.3-0.3,0.5-0.7,0.5-1.1c0-0.4-0.1-0.7-0.3-1c-0.2-0.3-0.5-0.5-0.8-0.5c-0.2,0-0.5,0.1-0.7,0.3c-1,1-2,1.9-2.9,2.7
		c-0.4,0.3-0.8,0.7-1.2,1c-0.4,0.3-0.8,0.6-1.2,0.9c-0.4,0.3-0.7,0.5-1.1,0.6c-0.3,0.2-0.6,0.2-0.9,0.2c-0.4,0-0.7-0.2-0.8-0.5
		c-0.2-0.3-0.2-0.7-0.2-1.2c0-0.4,0.1-0.8,0.2-1.3c0.1-0.5,0.3-1.1,0.4-1.7c0.2-0.6,0.4-1.2,0.6-1.8c0.2-0.6,0.4-1.2,0.6-1.8
		s0.4-1.1,0.6-1.6s0.3-0.9,0.4-1.2c0-0.1,0-0.2,0-0.3c0-0.4-0.2-0.8-0.6-1.1c-0.4-0.3-0.9-0.5-1.5-0.5c-0.2,0-0.4,0-0.7,0.1
		c-0.3,0.1-0.5,0.2-0.8,0.3c-0.3,0.1-0.6,0.3-0.8,0.4c-0.3-0.3-0.7-0.6-1.1-0.8c-0.4-0.2-0.8-0.4-1.3-0.6c-0.5-0.2-1.1-0.3-1.9-0.3
		c-1.4,0-2.6,0.2-3.7,0.7c-1.1,0.5-2.1,1.1-3,1.9s-1.6,1.6-2.2,2.6c-0.6,1-1.2,1.9-1.6,2.9c-0.1,0.3-0.2,0.5-0.3,0.8
		c-0.1,0.1-0.1,0.1-0.2,0.2c-0.6,0.5-1.2,0.9-1.8,1.4c-0.6,0.5-1.3,0.9-1.9,1.3c-0.6,0.4-1.2,0.8-1.8,1.1c-0.6,0.3-1.1,0.6-1.6,0.8
		c-0.5,0.2-0.9,0.3-1.3,0.3c-0.3,0-0.5-0.1-0.6-0.2c-0.1-0.1-0.1-0.3-0.1-0.6c0-0.4,0.1-0.8,0.3-1.3s0.3-0.9,0.5-1.3
		c0.4-0.9,0.9-1.9,1.4-3.1s1.1-2.4,1.8-3.7s1.3-2.7,1.9-4.1c0.7-1.4,1.3-2.7,1.9-4c0.6-1.3,1.2-2.5,1.8-3.6c0.6-1.1,1-2,1.4-2.8
		c0.2-0.4,0.4-0.7,0.5-1c0.1-0.3,0.2-0.6,0.2-0.9c0-0.6-0.2-1.1-0.6-1.3c-0.4-0.3-0.9-0.4-1.4-0.4s-1,0.1-1.5,0.4s-0.9,0.7-1.2,1.3
		l-7.3,15.5c-0.4,0.8-0.8,1.6-1.2,2.6c0,0,0-0.1,0-0.1c-0.1-0.4-0.3-0.6-0.5-0.6c-0.1,0-0.2,0-0.3,0.1c-0.4,0.2-1,0.5-1.7,1
		c-0.7,0.5-1.4,1-2.2,1.6c-0.8,0.6-1.7,1.2-2.6,1.8c-0.9,0.6-1.8,1.2-2.7,1.7c-0.9,0.5-2,1-3.3,1.6c-1.3,0.5-2.3,0.8-3,0.8
		c-1.4,0-2.5-0.4-3.1-1.1c-0.6-0.7-0.9-1.6-0.9-2.8c0-0.9,0.2-2,0.5-3.2c0.3-1.2,0.8-2.4,1.4-3.6c0.6-1.3,1.3-2.5,2.1-3.8
		c0.8-1.3,1.7-2.5,2.6-3.7c0.9-1.2,1.9-2.3,2.8-3.4c1-1.1,1.9-2,2.9-2.8s1.9-1.4,2.7-1.9c0.9-0.4,1.6-0.7,2.3-0.7
		c0.5,0,0.9,0.1,1.1,0.4c0.2,0.3,0.3,0.7,0.3,1.1c0,0.4-0.1,0.8-0.3,1.3c-0.2,0.5-0.4,0.9-0.7,1.4c-0.3,0.5-0.6,0.9-0.9,1.4
		c-0.3,0.4-0.6,0.8-0.9,1.1c-0.3,0.3-0.5,0.6-0.6,0.9s-0.2,0.5-0.2,0.7c0,0.3,0.1,0.5,0.3,0.7s0.4,0.3,0.6,0.4
		c0.2,0.1,0.5,0.1,0.7,0.2c0.2,0,0.4,0,0.6,0c0.6,0,1.2-0.2,1.8-0.5c0.5-0.3,1.1-0.7,1.5-1.3c0.5-0.5,0.9-1.1,1.2-1.8
		c0.4-0.6,0.7-1.3,0.9-2c0.3-0.7,0.5-1.3,0.6-1.9s0.2-1.1,0.2-1.6c0-0.8-0.1-1.5-0.4-2c-0.3-0.6-0.6-1-1.1-1.3
		c-0.5-0.3-1-0.6-1.6-0.7c-0.6-0.2-1.3-0.2-1.9-0.2c-1.4,0-2.8,0.3-4.2,0.8c-1.4,0.5-2.8,1.2-4.2,2.1c-1.4,0.9-2.8,2-4.1,3.2
		c-1.3,1.2-2.6,2.5-3.8,4c-1.2,1.4-2.3,2.9-3.2,4.5s-1.8,3.1-2.6,4.7s-1.3,3.1-1.7,4.6s-0.6,2.9-0.6,4.2c0,1.1,0.2,2,0.5,2.9
		c0.3,0.9,0.8,1.7,1.5,2.3c0.7,0.6,1.5,1.1,2.6,1.5c1.1,0.4,2.3,0.5,3.8,0.5c1.3,0,2.8-0.3,4.5-0.8s3.1-1.1,4.2-1.7
		c1.1-0.6,2.1-1.2,3-1.9c0.9-0.7,1.8-1.3,2.5-1.9c0.4-0.3,0.7-0.6,1-0.9c-0.2,0.5-0.4,1-0.5,1.5c-0.2,0.8-0.3,1.6-0.3,2.4
		c0,0.5,0.1,0.9,0.2,1.3c0.1,0.4,0.3,0.8,0.6,1.1c0.3,0.3,0.6,0.5,1.1,0.7c0.4,0.2,1,0.3,1.6,0.3c1,0,2-0.2,3-0.6
		c1-0.4,2-0.9,3.1-1.6s2.1-1.4,3.1-2.2c0.1-0.1,0.2-0.2,0.4-0.3c0,0.8,0.2,1.5,0.5,2.1c0.3,0.6,0.8,1.1,1.3,1.5s1,0.7,1.6,0.8
		c0.6,0.2,1,0.3,1.5,0.3c0.8,0,1.6-0.2,2.4-0.6c0.8-0.4,1.6-0.9,2.3-1.4c0.7-0.6,1.4-1.2,2-1.9c0.6-0.7,1.2-1.4,1.7-2.1
		c-0.1,0.3-0.2,0.6-0.2,0.9c0,0.3-0.1,0.7-0.1,1c0,0.5,0.1,1,0.2,1.5c0.1,0.5,0.3,0.9,0.6,1.3s0.6,0.7,1,0.9s0.9,0.4,1.4,0.4
		c0.6,0,1.3-0.1,2-0.4s1.4-0.7,2.2-1.1c0.7-0.4,1.4-0.9,2-1.5c0.1,0.1,0.2,0.3,0.3,0.4c0.5,0.6,1,1.1,1.7,1.5
		c0.6,0.4,1.4,0.7,2.2,0.9c0.8,0.2,1.6,0.3,2.4,0.3c1.1,0,2.2-0.1,3.3-0.4c1.1-0.3,2-0.6,2.9-1.2c0.8-0.5,1.4-1,1.9-1.7
		c0.1,0.2,0.2,0.4,0.4,0.6c0.5,0.6,1,1.1,1.7,1.5c0.6,0.4,1.4,0.7,2.2,0.9s1.6,0.3,2.4,0.3c1.1,0,2.2-0.1,3.3-0.4
		c1.1-0.3,2-0.6,2.9-1.2c0.8-0.5,1.5-1.1,2-1.9c0.5-0.7,0.8-1.6,0.8-2.5c0-0.7-0.1-1.5-0.4-2.2C584.4,282.7,584,281.9,583.4,281.2z
		 M545.7,280.7c-0.2,0.4-0.6,1-0.9,1.5c-0.4,0.6-0.8,1.1-1.3,1.7s-1,1.1-1.5,1.6c-0.5,0.5-1,0.9-1.5,1.2c-0.5,0.3-0.9,0.5-1.2,0.5
		c-0.4,0-0.8-0.1-1.1-0.3s-0.5-0.4-0.6-0.7s-0.2-0.6-0.3-1s-0.1-0.7-0.1-1c0-0.8,0.2-1.6,0.5-2.3c0.3-0.8,0.8-1.5,1.3-2.1
		c0.5-0.6,1.2-1.1,1.9-1.5c0.7-0.4,1.4-0.6,2.2-0.6c0.3,0,0.6,0,0.9,0.1c0.3,0.1,0.7,0.2,1,0.4c0.3,0.2,0.6,0.4,0.8,0.6
		c0.2,0.2,0.3,0.5,0.3,0.8C546,280,545.9,280.3,545.7,280.7z"/>
	<path class="st0" d="M595.2,271.8c0.5,0,1-0.1,1.4-0.3c0.4-0.2,0.7-0.5,0.9-0.8c0.2-0.3,0.4-0.7,0.5-1c0.1-0.4,0.2-0.7,0.2-1
		c0-0.5-0.2-1-0.6-1.4s-1-0.5-1.9-0.5c-0.6,0-1,0.1-1.5,0.3s-0.7,0.5-1,0.8s-0.5,0.7-0.6,1.1c-0.1,0.4-0.2,0.8-0.2,1.1
		c0,0.5,0.3,0.9,0.7,1.2C593.5,271.6,594.2,271.8,595.2,271.8z"/>
	<path class="st0" d="M616.1,282.4c-0.1-0.1-0.2-0.2-0.3-0.3c-0.1-0.1-0.3-0.1-0.5-0.1c-0.2,0-0.5,0.1-0.7,0.2
		c-0.1,0.1-0.4,0.2-0.8,0.5c-0.4,0.3-0.9,0.6-1.6,1s-1.3,0.8-2.1,1.2c-0.8,0.4-1.5,0.8-2.3,1.2c-0.8,0.4-1.6,0.7-2.4,0.9
		c-0.8,0.2-1.6,0.4-2.3,0.4c-0.7,0-1.2-0.2-1.6-0.5s-0.6-0.8-0.6-1.3c0-0.4,0.1-0.9,0.3-1.4c0.2-0.5,0.5-1.1,0.8-1.7
		s0.7-1.2,1.2-1.7s0.9-1.1,1.3-1.5c0.5-0.4,0.9-0.8,1.4-1.1c0.5-0.3,0.9-0.4,1.2-0.4c0.3,0,0.5,0.1,0.6,0.3c0.1,0.2,0.1,0.4,0.1,0.7
		c0,0.3,0,0.5,0,0.8c0,0.3,0,0.5,0,0.6c0,0.2,0,0.4,0.1,0.5c0.1,0.1,0.3,0.1,0.6,0.1c0.6,0,1.1-0.2,1.5-0.5s0.7-0.8,1-1.3
		c0.3-0.5,0.4-1.1,0.6-1.7c0.1-0.6,0.2-1.2,0.2-1.6c0-0.4-0.1-0.7-0.2-1c-0.1-0.3-0.3-0.5-0.6-0.7c-0.2-0.2-0.5-0.3-0.8-0.4
		c-0.3-0.1-0.6-0.1-1-0.1c-1,0-2.1,0.2-3.1,0.7c-1,0.4-2,1-2.9,1.8c-0.9,0.7-1.8,1.6-2.6,2.5s-1.5,1.9-2.1,2.9
		c-0.5,0.9-0.9,1.7-1.2,2.5c-0.1,0.1-0.2,0.2-0.2,0.2c-0.4,0.4-0.9,0.8-1.4,1.2s-1,0.7-1.5,1c-0.5,0.3-1,0.6-1.5,0.7
		c-0.5,0.2-1,0.3-1.4,0.3c-0.4,0-0.7-0.1-0.9-0.2c-0.2-0.1-0.3-0.4-0.3-0.9c0-0.4,0.1-0.8,0.2-1.3c0.2-0.5,0.3-1,0.6-1.5
		c0.2-0.5,0.4-1,0.7-1.5c0.2-0.5,0.5-0.9,0.6-1.3c0.2-0.3,0.3-0.6,0.4-0.9c0.1-0.2,0.2-0.5,0.3-0.7c0.1-0.2,0.3-0.5,0.4-0.8
		s0.3-0.6,0.6-1.1c0.1-0.1,0.1-0.3,0.2-0.4s0-0.3,0.1-0.4c0-0.6-0.2-1.1-0.7-1.5c-0.4-0.4-1-0.6-1.6-0.6c-0.4,0-0.7,0.1-1.1,0.3
		c-0.4,0.2-0.7,0.5-0.9,1c-0.3,0.6-0.6,1.2-0.8,1.7c-0.2,0.4-0.4,0.9-0.6,1.3s-0.3,0.8-0.4,1c-0.2,0.6-0.5,1.2-0.8,1.8
		c-0.3,0.6-0.6,1.3-0.9,1.9c-0.3,0.7-0.5,1.4-0.7,2.1c-0.2,0.7-0.3,1.4-0.3,2.2c0,1.4,0.4,2.4,1.1,3.1c0.7,0.7,1.8,1,3.1,1
		c0.9,0,1.8-0.2,2.7-0.5c0.9-0.4,1.8-0.8,2.7-1.4c0.7-0.5,1.4-1,2-1.5c0,0.2,0.1,0.3,0.1,0.5c0.2,0.6,0.6,1.1,1,1.6
		c0.4,0.4,1,0.8,1.6,1c0.6,0.3,1.4,0.4,2.2,0.4c1.1,0,2.2-0.2,3.3-0.5s2.2-0.7,3.2-1.2s2-1,2.9-1.6c0.9-0.6,1.7-1.2,2.4-1.7
		c0.7-0.5,1.3-1,1.7-1.4c0.4-0.4,0.7-0.6,0.8-0.7c0.2-0.3,0.3-0.5,0.4-0.7c0-0.2,0-0.4,0-0.5c0-0.1,0-0.2,0-0.3
		S616.2,282.5,616.1,282.4z"/>
	<path class="st0" d="M696.4,275c-0.1-0.2-0.3-0.4-0.5-0.5c-0.2-0.1-0.5-0.2-0.8-0.2c-0.3,0-0.7-0.1-1.1-0.1h-7.8
		c0.6-1.1,1.2-2.2,1.7-3.2c0.2-0.4,0.5-0.9,0.7-1.3s0.5-0.9,0.7-1.3s0.5-0.8,0.7-1.2c0.2-0.4,0.4-0.7,0.5-1c0.2-0.4,0.4-0.8,0.5-1.1
		c0.1-0.3,0.2-0.6,0.2-0.9c0-0.6-0.2-1-0.6-1.3s-0.8-0.4-1.3-0.4c-0.5,0-1,0.1-1.5,0.4s-0.9,0.7-1.2,1.3l-5.1,10.1H679
		c-0.4,0-0.7,0.1-1,0.2s-0.5,0.3-0.7,0.5c-0.2,0.2-0.4,0.4-0.5,0.6c-0.1,0.2-0.2,0.4-0.2,0.6c0,0.4,0.2,0.7,0.5,1
		c0.3,0.3,1,0.4,1.9,0.4h1c-0.4,0.9-0.9,1.8-1.4,2.8c-0.2,0.4-0.4,0.8-0.6,1.2c-0.4,0.2-0.8,0.5-1.3,0.7c-0.9,0.5-1.9,1.1-3,1.6
		c-1.1,0.5-2.1,1.1-3.2,1.6c-1.1,0.5-2,1-2.9,1.3c-0.1,0-0.2,0-0.2-0.1c0,0,0-0.1,0-0.3c0-0.1,0.2-0.4,0.5-0.8
		c0.3-0.4,0.8-0.8,1.3-1.4c0.5-0.5,1.1-1.1,1.7-1.7s1.2-1.2,1.7-1.8s1-1.2,1.4-1.8c0.4-0.6,0.6-1.1,0.7-1.5c0-0.2,0.1-0.4,0.1-0.6
		c0-0.2,0-0.4,0-0.6c0-0.8-0.2-1.4-0.6-1.7s-1-0.5-1.7-0.5c-0.4,0-1,0.1-1.5,0.2c-0.6,0.1-1.2,0.3-1.8,0.6c-0.6,0.2-1.3,0.5-1.9,0.8
		c-0.7,0.3-1.3,0.7-1.9,1.1l0,0h0c0,0,0,0,0,0c0,0,0-0.1,0-0.2c0-0.1,0.1-0.2,0.1-0.3c0-0.1,0.1-0.2,0.1-0.3c0-0.1,0-0.1,0-0.2
		c0-0.3-0.1-0.5-0.3-0.7c-0.2-0.2-0.5-0.4-0.8-0.5s-0.7-0.3-1.1-0.3c-0.4-0.1-0.8-0.1-1.3-0.1c-0.4,0-0.8,0-1.1,0.1
		c-0.4,0.1-0.7,0.2-1,0.4c-0.3,0.2-0.5,0.4-0.6,0.7s-0.2,0.6-0.2,1c0,0.4,0.1,0.8,0.2,1c0.2,0.3,0.3,0.5,0.6,0.7
		c-0.4,0.4-0.7,0.8-1.1,1.3c-0.7,0.7-1.3,1.5-2.1,2.2c-0.7,0.7-1.5,1.4-2.2,2.1s-1.5,1.3-2.1,1.8c-0.7,0.5-1.3,0.9-1.9,1.3
		c-0.6,0.3-1.1,0.5-1.6,0.5c-0.3,0-0.5-0.1-0.6-0.3c-0.1-0.2-0.1-0.5-0.1-0.8c0-0.4,0-0.7,0.1-1.1s0.2-0.7,0.3-1
		c0.2-0.8,0.5-1.7,1-2.8s0.9-2.2,1.4-3.3c0.5-1.2,1-2.3,1.5-3.5c0.5-1.2,1-2.2,1.4-3.2s0.7-1.9,1-2.6c0.3-0.7,0.4-1.3,0.4-1.6
		c0-0.3-0.1-0.6-0.2-0.8c-0.1-0.2-0.3-0.4-0.5-0.6c-0.2-0.2-0.4-0.3-0.7-0.3c-0.2-0.1-0.5-0.1-0.7-0.1c-0.5,0-0.9,0.1-1.3,0.4
		c-0.4,0.3-0.7,0.7-0.9,1.3c-0.3,0.7-0.6,1.4-1,2.2c-0.4,0.8-0.7,1.6-1.1,2.4c-0.4,0.8-0.7,1.6-1.1,2.4s-0.7,1.5-1,2.2
		s-0.6,1.3-0.8,1.9c-0.2,0.6-0.4,1-0.6,1.3l-7.4,0.6h-4.4c0.4-0.6,0.8-1.3,1.3-2.1c0.5-0.9,1.1-1.8,1.7-2.8c0.6-1,1.3-2.1,1.9-3.2
		c0.7-1.1,1.4-2.2,2.1-3.2c0.7-1.1,1.5-2.1,2.3-3c0.8-1,1.6-1.8,2.4-2.5s1.6-1.3,2.4-1.7s1.6-0.6,2.3-0.6c0.5,0,1.1,0.1,1.6,0.4
		s1.1,0.7,1.6,1.3c0.3,0.4,0.7,0.7,1.1,0.8c0.4,0.1,0.7,0.2,1,0.2c0.2,0,0.5,0,0.7-0.1s0.4-0.2,0.6-0.4c0.2-0.2,0.3-0.3,0.4-0.6
		s0.2-0.4,0.2-0.6c0-0.2-0.1-0.4-0.2-0.6c-1-1.7-2.1-2.9-3.3-3.6c-1.1-0.7-2.3-1.1-3.5-1.1c-1.3,0-2.5,0.3-3.8,1s-2.6,1.6-3.8,2.7
		s-2.5,2.4-3.7,3.9c-1.2,1.5-2.3,3-3.4,4.5c-1.1,1.5-2.1,3.1-3,4.6s-1.7,2.9-2.4,4.1c-0.7,1.2-1.3,2.3-1.7,3.1
		c-0.4,0.9-0.7,1.4-0.9,1.6l-3.2,5.3c-0.2,0.4-0.4,0.8-0.5,1.2c-0.1,0.4-0.2,0.8-0.2,1.2c0,0.2,0,0.5,0.1,0.8
		c0.1,0.3,0.2,0.5,0.4,0.7c0.2,0.2,0.4,0.4,0.7,0.5s0.7,0.2,1.2,0.2c0.3,0,0.6-0.1,0.9-0.3c0.3-0.2,0.6-0.5,1-0.9
		c0.3-0.4,0.6-0.8,1-1.2c0.3-0.5,0.6-0.9,0.9-1.4c0.7-1.1,1.3-2.4,2-3.9l4,0l8.5-0.5c0,0.1,0,0.3,0,0.6c0,0.3,0,0.7-0.1,1.1
		c0,0.4,0,0.8-0.1,1.2s0,0.7,0,0.9c0,0.5,0.1,1.1,0.2,1.6c0.1,0.5,0.3,0.9,0.6,1.3c0.3,0.4,0.7,0.7,1.1,0.9s1,0.3,1.7,0.3
		c1.2,0,2.3-0.3,3.5-0.9c1.2-0.6,2.3-1.4,3.5-2.4c0.3-0.2,0.5-0.5,0.8-0.8c-0.2,0.5-0.4,0.9-0.7,1.3c-0.2,0.3-0.3,0.6-0.3,0.9
		s-0.1,0.5-0.1,0.7c0,0.4,0.1,0.7,0.3,0.9c0.2,0.2,0.5,0.3,0.9,0.3c0.3,0,0.7-0.1,1.1-0.2s0.8-0.3,1.1-0.6s0.7-0.6,1-0.9
		s0.6-0.8,0.8-1.3c0.2-0.5,0.5-1.2,0.9-1.9c0.3-0.7,0.7-1.5,1-2.2c0.4-0.8,0.7-1.5,1-2.2c0.3-0.7,0.6-1.3,0.9-1.7
		c0.2-0.4,0.5-0.7,1-1s0.9-0.6,1.4-0.8c0.5-0.2,1-0.4,1.4-0.6c0.4-0.1,0.8-0.2,1-0.2c0.1,0,0.2,0,0.2,0.1c0,0.1,0,0.2,0,0.2
		c0,0.3-0.1,0.7-0.3,1.1c-0.2,0.4-0.5,0.8-0.9,1.3c-0.3,0.5-0.7,1-1.1,1.5c-0.4,0.5-0.8,1.1-1.2,1.7c-0.4,0.6-0.7,1.2-1,1.9
		c-0.3,0.7-0.5,1.3-0.6,2c0,0.1,0,0.2,0,0.3c0,0.8,0.3,1.5,0.8,2c0.6,0.5,1.4,0.8,2.5,0.8c0.5,0,1-0.1,1.6-0.3s1.3-0.5,2-0.9
		c0.7-0.4,1.5-0.8,2.2-1.2c0.8-0.4,1.5-0.9,2.3-1.4c0.4-0.3,0.8-0.5,1.2-0.8c-0.2,0.6-0.3,1.3-0.3,1.9c0,0.4,0.1,0.9,0.2,1.3
		s0.3,0.7,0.6,1s0.6,0.5,1,0.7c0.4,0.2,1,0.3,1.6,0.3c1,0,2-0.2,3-0.6c1-0.4,2.1-0.9,3.1-1.6s2.1-1.4,3.2-2.2
		c1.1-0.9,2.1-1.7,3.2-2.7c0.5-0.4,0.8-0.7,1-1.1c0.2-0.4,0.3-0.8,0.3-1.1s-0.1-0.7-0.3-0.9c-0.2-0.2-0.4-0.4-0.7-0.4
		c-0.2,0-0.5,0.1-0.7,0.3c-0.4,0.4-1,0.8-1.5,1.3c-0.6,0.5-1.2,0.9-1.8,1.4c-0.6,0.5-1.3,0.9-1.9,1.3c-0.7,0.4-1.3,0.8-1.9,1.1
		c-0.6,0.3-1.1,0.6-1.7,0.8c-0.5,0.2-0.9,0.3-1.3,0.3c-0.2,0-0.4-0.1-0.5-0.2c-0.1-0.1-0.2-0.3-0.2-0.5c0-0.4,0.1-0.8,0.3-1.3
		c0.2-0.5,0.4-1,0.6-1.3c0.5-0.9,1-1.9,1.5-3c0.5-1.1,1.1-2.2,1.7-3.4l10-0.1c0.4,0,0.8-0.1,1-0.2c0.3-0.1,0.5-0.2,0.6-0.4
		s0.3-0.3,0.3-0.5c0.1-0.2,0.1-0.4,0.1-0.5C696.6,275.5,696.5,275.2,696.4,275z"/>
</g>
<g>
	<path class="st2" d="M183.6,89c-2.8,1.6-4.8,3.5-6.1,5.7c-1.3,2.2-1.9,4.4-1.9,6.6c0,2.6,0.8,4.9,2.3,6.8c1.5,1.9,3.6,2.9,6.1,2.9
		c2.5,0,5.2-1.1,8.2-3.2c6.7-4.7,11.6-9.7,14.9-15c3.3-5.4,4.9-11,4.9-16.9c0-4.1-0.7-7.6-2-10.5c-1.3-2.9-3.2-5.3-5.5-7.2
		c-2.4-1.9-5.1-3.2-8.2-4.1c-3.1-0.9-6.6-1.3-10.3-1.3c-4.9,0-10.1,0.7-15.6,2.1c-5.5,1.4-11,3.3-16.4,5.7
		c-5.4,2.4-10.6,5.4-15.6,8.8c-5,3.4-9.3,7.2-13.1,11.2c-3.8,4-6.8,8.3-9,12.9c-2.2,4.6-3.4,9.3-3.4,14.1c0,5.2,1.4,10.2,4.2,15
		c2.8,4.8,7.1,9.8,12.7,15c1.1,0.9,3.8,3.2,8.4,6.9c4.5,3.6,11.1,8.4,19.8,14.3c4.9,3.3,8.5,6.5,10.8,9.6s3.4,6,3.4,8.9
		c0,3.8-1,7.3-3.1,10.5c-2.1,3.2-4.9,6-8.4,8.4c-3.5,2.4-7.6,4.2-12.3,5.5c-4.7,1.3-9.7,2-14.9,2c-5.1,0-9.4-0.3-13-1
		c-3.6-0.7-6.5-1.6-8.8-2.7c-2.3-1.1-3.9-2.5-5-4c-1.1-1.5-1.6-3.1-1.6-4.7c0-2.6,1.2-5.2,3.6-7.9c2.4-2.6,5.8-4.9,10-6.8
		c1.8-0.8,3.3-1.5,4.4-2.2c1.1-0.7,2-1.4,2.7-2.1c0.7-0.7,1.1-1.6,1.4-2.4c0.2-0.9,0.3-1.9,0.3-3.1c0-2.4-0.5-4.5-1.5-6.3
		c-1-1.9-2.6-2.8-4.8-2.8c-5.9,1.5-11.3,3.7-16.3,6.5c-4.9,2.8-9.2,6.1-12.7,9.7c-3.5,3.6-6.3,7.5-8.2,11.5c-1.9,4.1-2.9,8.1-2.9,12
		c0,3.8,0.9,7.4,2.8,10.8c1.9,3.4,4.9,6.5,9.1,9.1c4.2,2.6,9.5,4.7,16,6.3c6.5,1.5,14.3,2.3,23.6,2.3c9.9,0,19-1.5,27.1-4.4
		c8.2-2.9,15.1-6.7,20.9-11.5c5.8-4.7,10.3-10.1,13.4-16.2c3.1-6,4.7-12.2,4.7-18.5c0-2.8-0.5-5.5-1.5-8c-1-2.5-2.4-5-4.2-7.5
		s-4.1-5-6.8-7.5c-2.7-2.5-5.7-5-9.2-7.6l-26.6-20.5c-2.5-1.9-4.7-3.6-6.6-5.3c-1.9-1.6-3.5-3.2-4.8-4.7c-1.3-1.5-2.3-3-3-4.5
		c-0.7-1.5-1-3.1-1-4.9c0-2.5,0.8-5.1,2.4-7.6c1.6-2.6,3.8-5,6.5-7.3c2.7-2.3,5.8-4.4,9.3-6.4c3.5-2,7.2-3.7,10.9-5.1
		c3.8-1.4,7.5-2.5,11.3-3.4c3.8-0.8,7.2-1.2,10.4-1.2c1.7,0,3.1,0.3,4.3,0.8c1.2,0.6,1.8,1.7,1.8,3.6c0,1.9-0.9,3.8-2.6,5.9
		C187.7,86.2,185.8,87.8,183.6,89z"/>
	<path class="st2" d="M478,177.6c-0.6,0-1.2,0.1-1.8,0.4c-0.6,0.2-1.1,0.6-1.6,1.2c-1.8,2.1-4.3,4.6-7.3,7.6c-3.1,3-6.4,6-9.9,8.8
		c-3.5,2.8-7.1,5.2-10.9,7.2c-3.7,2-7.2,3-10.4,3c-1.7,0-3-0.2-4-0.7c-1-0.5-1.5-1.6-1.5-3.3c0-1.9,0.5-3.9,1.6-6.1
		c1.1-2.2,2.3-4.3,3.8-6.3c1.4-2.1,2.9-4,4.4-5.8c1.5-1.8,2.7-3.3,3.6-4.5c2.8-3.6,5.2-7.5,7.3-11.7c2.1-4.3,3.1-8.8,3.1-13.5
		c0-3-0.5-5.5-1.5-7.6c-1-2.1-2.4-3.7-4.2-5c-1.8-1.3-3.8-2.2-6.1-2.8c-2.3-0.6-4.7-0.8-7.2-0.8c-3.4,0-6.5,0.4-9.3,1.3
		c-2.8,0.9-5.4,2-7.8,3.4c-2.4,1.4-4.6,3-6.7,4.8c-2,1.8-3.9,3.6-5.7,5.4c-0.2-2.7-0.7-5-1.6-6.9c-0.9-1.9-2.2-3.4-3.6-4.6
		c-1.5-1.2-3.2-2.1-5.1-2.6c-1.9-0.6-3.9-0.8-6-0.8c-4.2,0-8.1,0.6-11.5,1.9c-3.4,1.3-6.5,2.9-9.3,4.8c-2.8,1.9-5.3,4-7.7,6.3
		c-2.4,2.3-4.5,4.4-6.6,6.4c0.9-2.4,1.4-4.7,1.4-6.7c0-2.8-0.7-4.9-2.2-6.3c-1.5-1.5-3.2-2.2-5.1-2.2c-2.2,0-4.4,0.8-6.7,2.5
		c-2.2,1.7-4,4.2-5.4,7.6c-1.1,2.8-2.6,6.1-4.3,10c-1.7,3.9-3.5,8.1-5.5,12.5c-0.6,1.3-1.1,2.5-1.7,3.8c-4.8,5-9.3,9.5-13.5,13.5
		c-1.8,1.7-3.7,3.3-5.6,4.9c-1.9,1.6-3.8,3.1-5.6,4.3c-1.8,1.3-3.5,2.3-5.1,3c-1.6,0.8-2.9,1.1-4,1.1c-1.8,0-3.1-0.8-3.9-2.3
		c-0.8-1.5-1.1-3.5-1.1-5.9c0-1.8,0.3-4,0.8-6.6c0.5-2.6,1.2-5.3,2-8.2c0.8-2.9,1.8-5.9,2.8-8.9c1-3,2-6,3-8.8
		c1-2.8,1.9-5.3,2.7-7.6c0.8-2.3,1.4-4.2,1.8-5.7c0.1-0.3,0.1-0.7,0.1-1.3c0-2-0.9-3.8-2.7-5.4c-1.8-1.7-4.2-2.5-7.1-2.5
		c-0.9,0-2,0.2-3.2,0.7c-1.3,0.4-2.4,0.9-3.6,1.5c-1.4,0.6-2.7,1.3-4,2c-1.5-1.5-3.3-2.9-5.2-4.1c-1.7-1-3.9-2-6.4-2.8
		c-2.5-0.9-5.4-1.3-8.8-1.3c-6.4,0-12.3,1.2-17.5,3.5c-5.2,2.3-9.9,5.4-14,9.1c-4.1,3.7-7.6,8-10.6,12.7c-3,4.7-5.5,9.5-7.4,14.4
		s-3.4,9.5-4.3,14c-0.9,4.5-1.4,8.4-1.4,11.6c0,4.3,0.8,8,2.4,11c1.6,3,3.6,5.4,5.9,7.3c2.3,1.9,4.8,3.3,7.5,4.1
		c2.6,0.8,4.9,1.2,6.9,1.2c3.9,0,7.7-0.9,11.4-2.8c3.8-1.9,7.4-4.2,10.8-7.1c3.4-2.9,6.7-6.1,9.7-9.6c3-3.5,5.7-6.9,8-10.2
		c-0.5,1.4-0.9,2.9-1.1,4.6c-0.2,1.6-0.3,3.3-0.3,4.9c0,2.5,0.3,5,0.9,7.4c0.6,2.4,1.5,4.6,2.8,6.5c1.3,1.9,2.8,3.4,4.7,4.6
		c1.9,1.2,4.2,1.8,6.8,1.8c3,0,6.1-0.7,9.4-2.2c3.3-1.5,6.7-3.3,10.2-5.6c3.4-2.3,6.8-4.8,10.1-7.6c1.2-1,2.3-2,3.5-3
		c-0.3,0.9-0.6,1.9-0.9,2.7c-1,3-1.5,5.2-1.5,6.6c0,2.5,0.8,4.7,2.4,6.5c1.6,1.8,3.8,2.7,6.5,2.7c2.5,0,4.6-0.9,6.3-2.7
		c1.7-1.8,3.2-4,4.5-6.6c1.3-2.6,2.6-5.4,3.7-8.5c1.1-3.1,2.4-5.9,3.8-8.5c1.5-2.5,3.2-5.3,5-8.4s3.8-6.2,5.9-9.3
		c2.1-3.1,4.3-6.1,6.7-9.1c2.4-2.9,4.9-5.5,7.6-7.8c2.7-2.2,5.4-4.1,8.3-5.4c2.9-1.4,5.9-2.1,9-2.1c1.3,0,2.3,0.4,3,1.2
		c0.7,0.8,1,1.9,1,3.1c0,1.2-0.2,2.3-0.7,3.5c-0.5,1.1-1.1,2.3-1.8,3.6c-2.7,4.5-5.5,8.9-8.4,13.2c-3,4.3-5.7,8.5-8.2,12.7
		c-2.5,4.2-4.6,8.2-6.2,12.2c-1.6,3.9-2.4,7.8-2.4,11.6c0.1,1,0.4,2,1,2.8c0.6,0.9,1.3,1.6,2.2,2.2c0.9,0.6,1.8,1.1,2.9,1.5
		c1.1,0.4,2,0.5,3,0.5c2.5,0,4.6-0.9,6.3-2.7c1.7-1.8,3.2-4,4.5-6.6c1.3-2.6,2.6-5.4,3.7-8.5c1.1-3.1,2.4-5.9,3.8-8.5
		c1.5-2.5,3.2-5.3,5-8.4c1.8-3.1,3.8-6.2,5.9-9.3c2.1-3.1,4.3-6.1,6.7-9.1c2.4-2.9,4.9-5.5,7.6-7.8c2.7-2.2,5.4-4.1,8.3-5.4
		c2.9-1.4,5.9-2.1,9-2.1c1.3,0,2.3,0.4,3,1.2c0.7,0.8,1,1.9,1,3.1c0,1.2-0.2,2.3-0.7,3.5c-0.5,1.1-1.1,2.3-1.8,3.6
		c-1.7,3-3.8,6-6.1,9c-2.4,3-4.6,6.1-6.7,9.3c-2.1,3.2-3.9,6.5-5.3,10c-1.4,3.5-2.2,7.2-2.2,11.1c0,6,1.7,10.4,5.2,13.1
		c3.4,2.8,8,4.1,13.6,4.1c4.3,0,8.7-0.9,13-2.6c4.4-1.7,8.7-4,13.1-6.9c4.4-2.9,8.7-6.2,13-9.9c4.3-3.7,8.5-7.7,12.6-11.8
		c2.2-1.8,3.8-3.7,4.7-5.6c0.9-1.9,1.4-3.6,1.4-5.2c0-2.1-0.6-3.7-1.6-5C480.6,178.2,479.4,177.6,478,177.6z M265.5,173.6
		c-1.1,2.2-2.6,4.7-4.4,7.5c-1.8,2.8-3.9,5.6-6.1,8.5c-2.3,2.9-4.6,5.5-7,7.9c-2.4,2.4-4.7,4.4-6.9,5.9c-2.2,1.5-4.2,2.3-5.9,2.3
		c-2.1,0-3.8-0.5-5.1-1.4c-1.3-0.9-2.2-2.1-2.9-3.6c-0.7-1.4-1.1-3-1.3-4.7c-0.2-1.7-0.3-3.3-0.3-4.9c0-3.9,0.8-7.7,2.3-11.5
		c1.5-3.8,3.6-7.3,6.1-10.4c2.6-3.1,5.5-5.6,8.9-7.5c3.3-1.9,6.8-2.8,10.4-2.8c1.2,0,2.6,0.2,4.3,0.7c1.6,0.4,3.2,1.1,4.6,2
		c1.4,0.9,2.7,1.9,3.6,3.1c1,1.2,1.5,2.6,1.5,4.1C267.2,169.8,266.6,171.4,265.5,173.6z"/>
	<path class="st2" d="M984.8,186.7c-1.3-3.7-3.3-7.4-5.8-10.9c-2.5-3.6-5.6-7-9.3-10.2c-3.6-3.2-7.8-6.1-12.4-8.6
		c1.1-0.9,2.1-1.8,3.2-2.7c1.1-0.9,2.1-1.9,3-2.8c0.9-0.9,1.6-1.9,2.1-3c0.5-1,0.8-2.1,0.8-3.2c0-0.8-0.3-1.6-0.9-2.5
		c-0.6-0.9-1.3-1.7-2.3-2.5c-1-0.7-2.2-1.4-3.6-1.8c-1.4-0.5-3-0.7-4.7-0.7c-2.3,0-4.5,0.5-6.6,1.4c-2.1,0.9-4.1,2.1-5.9,3.6
		c-1.8,1.5-3.5,3.1-5.1,4.8c-1.6,1.7-3,3.4-4.2,5.1c-0.5,0.6-0.7,1.3-0.7,2.2c0,1.2,0.4,2.3,1.1,3.5c0.8,1.1,1.3,1.8,1.7,2.1
		c3.5,2.3,7,4.7,10.5,7.2c3.5,2.5,6.7,5.2,9.4,8c2.8,2.9,5,6,6.8,9.4c1.7,3.4,2.6,7.1,2.6,11.1c0,2.3-0.5,4.2-1.5,5.8
		c-1,1.6-2.3,2.9-4,3.9c-1.7,1-3.7,1.8-5.9,2.2c-2.2,0.5-4.6,0.7-7,0.7c-2.4,0-4.8-0.3-7.2-0.9c-2.5-0.6-4.8-1.4-7-2.5
		c-2.1-1-4-2.3-5.8-3.7c1.9-1.4,3.5-2.6,4.9-3.7c2.2-1.7,3.4-2.8,3.8-3.2c1-1.3,1.6-2.4,1.7-3.4c0.2-1,0.2-1.8,0.2-2.5
		c0-0.5-0.1-1-0.2-1.7c-0.2-0.7-0.4-1.3-0.9-1.9c-0.4-0.6-0.9-1.1-1.5-1.5c-0.6-0.4-1.4-0.7-2.3-0.7c-0.5,0-1,0-1.5,0.1
		c-0.6,0.1-1.2,0.4-1.9,0.8c-0.7,0.3-2,1.1-4,2.4c-2,1.3-4.5,2.8-7.5,4.5c-3,1.7-6.4,3.6-10.1,5.5c-3.7,1.9-7.5,3.7-11.4,5.4
		c-3.9,1.7-7.8,3-11.8,4.1c-4,1.1-7.7,1.6-11.2,1.6c-3.3,0-5.9-0.7-7.8-2c-2-1.3-3.1-3.1-3.5-5.4c10.3-3.9,18.9-7.9,25.8-11.8
		c6.9-3.9,12.3-7.7,16.4-11.5c4.1-3.7,7-7.4,8.6-11.1c1.7-3.6,2.5-7.1,2.5-10.4c0-5.6-1.6-10-4.7-13.1c-3.1-3.2-7.8-4.7-14.1-4.7
		c-6,0-11.6,0.9-16.9,2.7c-5.3,1.8-10.1,4.2-14.5,7.2c-4.4,3-8.4,6.5-11.9,10.4c-3.5,3.9-6.5,7.9-8.9,12c-2.4,4.1-4.3,8.2-5.6,12.2
		c-0.6,1.8-1,3.6-1.3,5.3c-1.8,0.8-3.7,1.8-5.8,2.8c-4.4,2.2-8.9,4.6-13.6,7.3c-4.7,2.7-8.9,5.5-12.6,8.3l25.5-55.3
		c0.4-0.9,0.6-2,0.6-3.1c0-1.3-0.3-2.6-1-3.8c-0.7-1.2-1.8-1.8-3.4-1.8c-0.9,0-1.8,0-2.7,0.1c-0.9,0.1-1.8,0.3-2.9,0.8
		c-1.1,0.4-2.3,1.1-3.8,2c-1.5,0.9-3.3,2.2-5.4,4l-47,48.1c-1.1,1.1-2.4,2.1-3.6,3c-1.3,0.9-2.4,1.3-3.2,1.3c-0.9,0-1.4-0.6-1.4-1.8
		c0-1.3,0.5-3.2,1.6-5.4l20.8-45.1c0.3-0.7,0.5-1.5,0.5-2.5c0-1.9-0.8-3.4-2.4-4.6c-1.6-1.1-3.6-1.7-6-1.7c-2.3,0-4.6,0.7-7.1,2.1
		c-2.4,1.4-4.4,3.6-5.9,6.7c-2.2,5.8-4.2,10.8-6,15.1c-1.8,4.3-3.4,8.1-4.9,11.4c-1.5,3.3-2.8,6.2-4.1,8.8c-0.6,1.2-1.1,2.3-1.6,3.4
		c-1.7,1.1-3.8,2.3-6.1,3.6c-3,1.7-6.4,3.6-10.1,5.5c-3.7,1.9-7.5,3.7-11.4,5.4c-3.9,1.7-7.8,3-11.8,4.1c-4,1.1-7.7,1.6-11.2,1.6
		c-3.3,0-5.9-0.7-7.8-2c-2-1.3-3.1-3.1-3.5-5.4c10.3-3.9,18.9-7.9,25.8-11.8c6.9-3.9,12.3-7.7,16.4-11.5c4.1-3.7,7-7.4,8.6-11.1
		c1.7-3.6,2.5-7.1,2.5-10.4c0-5.6-1.6-10-4.7-13.1c-3.1-3.2-7.8-4.7-14.1-4.7c-6,0-11.6,0.9-16.9,2.7c-5.3,1.8-10.1,4.2-14.5,7.2
		c-4.4,3-8.4,6.5-11.9,10.4c-3.5,3.9-6.5,7.9-8.9,12c-2.4,4.1-4.3,8.2-5.6,12.2c-1.3,4.1-1.9,7.8-1.9,11.2c0,1.9,0.1,3.8,0.4,5.6
		c-2.4,1.6-5.2,3.1-8.4,4.6c-4.3,1.9-9.3,2.8-14.8,2.8c-0.5,0-1.1,0-1.6,0c-0.5,0-1.1,0-1.7-0.1c-3-0.2-5.9-1.8-8.6-4.7
		c-2.7-2.9-5.2-6.5-7.5-10.6c-2.2-4.1-4.1-8.5-5.7-13.1c-1.6-4.6-2.7-8.8-3.4-12.5c4.9-0.9,9.9-2.3,15.1-4.3
		c5.2-2,10.3-4.4,15.2-7.2c4.9-2.8,9.6-6.1,13.9-9.8c4.4-3.7,8.2-7.7,11.4-12.1c3.3-4.4,5.9-9.1,7.8-14.1c1.9-5,2.9-10.3,2.9-15.8
		c0-8.2-1.6-15.4-4.8-21.5c-3.2-6.2-7.6-11.3-13-15.3c-5.5-4.1-11.7-7.1-18.8-9.2c-7.1-2.1-14.5-3.1-22.2-3.1
		c-7.9,0-15.4,0.8-22.4,2.5c-7.1,1.7-13.6,3.9-19.5,6.7c-6,2.8-11.3,6-16.1,9.7s-8.8,7.5-12.1,11.4c-3.3,3.9-5.8,7.9-7.6,11.8
		c-1.8,3.9-2.7,7.6-2.7,11c0,3.6,0.9,6.5,2.8,8.5c1.9,2,4.7,3,8.5,3c2.8,0,5.2-0.7,7.1-2c1.9-1.3,3.6-3.1,5.2-5.2
		c1.6-2.1,3.1-4.6,4.5-7.3c1.4-2.8,3.1-5.6,4.8-8.5c1.8-2.9,3.9-5.8,6.4-8.5c2.5-2.8,5.5-5.2,9.1-7.3c3.6-2.1,7.9-3.9,12.9-5.2
		c5-1.3,10.9-2,17.8-2c6.1,0,11.4,0.8,15.9,2.2c4.4,1.5,8.1,3.5,10.9,6c2.8,2.5,4.9,5.5,6.3,8.9c1.3,3.4,2,7,2,10.8
		c0,5.3-1.3,10.7-3.8,16.3c-2.5,5.6-6,10.7-10.4,15.3c-4.4,4.6-9.5,8.3-15.4,11.3c-5.9,3-12.1,4.4-18.7,4.4c-0.5,0-1,0-1.5,0
		c-0.5,0-1,0-1.4-0.1c2-4.3,3.9-8.6,5.7-12.7s3.4-7.9,4.8-11.4c1.4-3.5,2.5-6.5,3.3-9.2c0.8-2.7,1.3-4.8,1.3-6.3
		c0-1.5-0.2-2.7-0.7-3.7c-0.5-1-1-1.7-1.6-2.2c-0.6-0.5-1.3-0.9-2-1.1c-0.8-0.2-1.4-0.3-1.9-0.3c-2,0-4.2,1.2-6.7,3.5
		c-2.5,2.3-5.1,5.4-7.8,9.3c-2.8,3.9-5.6,8.3-8.5,13.3c-2.9,5-5.8,10.2-8.7,15.6l-33.6,63.9c-0.8,1.7-1.5,3.4-1.9,5.3
		c-0.5,1.9-0.7,3.7-0.7,5.6c0,1.3,0.2,2.6,0.5,4s0.9,2.7,1.8,3.9c0.8,1.2,2,2.2,3.5,3c1.5,0.8,3.5,1.2,5.9,1.2c3,0,5.7-1.1,8.2-3.3
		s4.9-5.1,7.1-8.7c2.2-3.6,4.2-7.7,6-12.2c1.8-4.5,3.6-9.1,5.2-13.8c1.7-4.7,3.2-9.2,4.7-13.6c1.4-4.4,2.8-8.2,4.2-11.4
		c2.4,8.2,5.2,16,8.3,23.4c3.1,7.4,6.6,13.8,10.4,19.4c3.8,5.5,8,9.9,12.6,13.1c4.6,3.2,9.7,4.9,15.1,4.9c6.7,0,13.7-1.8,21.2-5.3
		c3.8-1.8,7.6-4.1,11.5-7c0.6,1,1.3,2,2,2.9c2.5,3.1,5.5,5.5,9,7.3c3.5,1.8,7.6,2.7,12.1,2.7c5.3,0,10.7-0.7,16.2-2.2
		s10.7-3.3,15.8-5.5c5-2.2,9.8-4.6,14.3-7.3c0.8-0.5,1.5-0.9,2.3-1.3c-0.8,3-1.2,5.8-1.2,8.4c0,2.8,0.9,4.9,2.7,6.1
		c1.8,1.2,4,1.8,6.6,1.8c8,0,16.7-3.7,25.9-11.1c9.3-7.4,19.6-18.1,30.9-32.2l-22.7,47.9c-5,6.5-9.2,12.2-12.5,17.1s-6,9.3-8,13.2
		c-2,3.9-3.4,7.6-4.2,10.8c-0.8,3.3-1.2,6.6-1.2,9.9c0,3.6,0.9,6.4,2.8,8.5c1.9,2.1,4.4,3.1,7.4,3.1c7.4,0,14.1-6.6,20.2-19.9
		c0.1-0.2,0.6-1.3,1.5-3.3c0.9-2.1,2.1-4.7,3.5-8c1.4-3.3,3-7.1,4.7-11.5c1.7-4.3,3.4-8.9,5.2-13.6c2.3-2.3,4.5-4.3,6.5-6
		c2-1.7,4.1-3.3,6.1-4.8c2.1-1.5,4.3-3,6.7-4.4c2.3-1.4,5-3,8.1-4.7c3-1.7,6.5-3.7,10.5-5.9c2.3-1.3,4.9-2.7,7.7-4.3
		c1.3,3.4,2.9,6.5,5.1,9.1c2.5,3.1,5.5,5.5,9,7.3c3.5,1.8,7.6,2.7,12.1,2.7c5.3,0,10.7-0.7,16.2-2.2s10.7-3.3,15.8-5.5
		c5-2.2,9.8-4.6,14.3-7.3c0.6-0.4,1.2-0.7,1.8-1.1c0.6,1.1,1.3,2.2,2,3.2c2.2,3,4.8,5.4,7.9,7.3s6.5,3.3,10.2,4.2
		c3.7,0.9,7.5,1.4,11.5,1.4c5.2,0,10.4-0.7,15.5-2c5.1-1.3,9.7-3.2,13.6-5.7c4-2.5,7.2-5.5,9.7-9.1c2.5-3.6,3.7-7.6,3.7-12.1
		C986.8,194.1,986.2,190.4,984.8,186.7z M679.4,180.8c0.9-2.2,2-4.5,3.2-6.9c1.3-2.4,2.7-4.8,4.4-7.3c1.6-2.4,3.5-4.6,5.6-6.6
		c2.1-1.9,4.4-3.5,6.9-4.7c2.5-1.2,5.2-1.8,8.1-1.8c0.4,0,0.7,0,1,0c0.3,0,0.6,0,1,0.1c0.9,0.2,1.7,0.6,2.4,1.3
		c0.7,0.7,1.1,1.7,1.1,2.8c0,1.4-0.6,3.1-1.9,5c-1.3,1.9-3.6,4-7.1,6.2c-0.8,0.5-2.1,1.4-3.9,2.7c-1.9,1.3-4,2.8-6.5,4.5
		c-2.5,1.7-5.2,3.4-8,5.2c-2.8,1.8-5.6,3.4-8.2,4.9C677.9,184.9,678.6,183,679.4,180.8z M861.4,180.8c0.9-2.2,2-4.5,3.2-6.9
		c1.3-2.4,2.7-4.8,4.4-7.3c1.6-2.4,3.5-4.6,5.6-6.6c2.1-1.9,4.4-3.5,6.9-4.7c2.5-1.2,5.2-1.8,8.1-1.8c0.4,0,0.7,0,1,0
		c0.3,0,0.6,0,1,0.1c0.9,0.2,1.7,0.6,2.4,1.3c0.7,0.7,1.1,1.7,1.1,2.8c0,1.4-0.6,3.1-1.9,5c-1.3,1.9-3.6,4-7.1,6.2
		c-0.8,0.5-2.1,1.4-3.9,2.7c-1.9,1.3-4,2.8-6.5,4.5c-2.5,1.7-5.2,3.4-8,5.2c-2.8,1.8-5.6,3.4-8.2,4.9
		C859.9,184.9,860.6,183,861.4,180.8z"/>
</g>
</svg>
